<svg width="20" height="21" viewBox="0 0 20 21" fill="none" xmlns="http://www.w3.org/2000/svg">
<path d="M12.9833 10.6749C12.9833 12.3249 11.6499 13.6583 9.99993 13.6583C8.34993 13.6583 7.0166 12.3249 7.0166 10.6749C7.0166 9.02494 8.34993 7.6916 9.99993 7.6916C11.6499 7.6916 12.9833 9.02494 12.9833 10.6749Z" stroke="#5B5B5B" stroke-width="1.25" stroke-linecap="round" stroke-linejoin="round"/>
<path d="M9.99987 17.5664C12.9415 17.5664 15.6832 15.8331 17.5915 12.8331C18.3415 11.6581 18.3415 9.68311 17.5915 8.50811C15.6832 5.50811 12.9415 3.77478 9.99987 3.77478C7.0582 3.77478 4.31654 5.50811 2.4082 8.50811C1.6582 9.68311 1.6582 11.6581 2.4082 12.8331C4.31654 15.8331 7.0582 17.5664 9.99987 17.5664Z" stroke="#5B5B5B" stroke-width="1.25" stroke-linecap="round" stroke-linejoin="round"/>
</svg>
