<svg width="580" height="580" viewBox="0 0 580 580" fill="none" xmlns="http://www.w3.org/2000/svg">
<path d="M2 2.06836H289.744C296.945 2.06836 304.123 2.06836 311.301 2.06836C340.31 1.97721 368.134 1.97721 395.389 2.06836C402.134 2.06836 408.788 2.06836 415.328 2.06836H577.465" stroke="url(#paint0_linear_206_262)" stroke-opacity="0.27" stroke-width="3.08941" stroke-miterlimit="10"/>
<path d="M2 32.3541H246.72C253.853 32.3541 261.008 32.3541 268.163 32.3541C322.581 29.8018 375.723 29.8018 432.237 32.3313C437.797 32.3541 443.244 32.3541 448.599 32.3541H577.465" stroke="url(#paint1_linear_206_262)" stroke-opacity="0.27" stroke-width="3.08941" stroke-miterlimit="10"/>
<path d="M2 62.6392H225.482C232.523 62.662 239.61 62.6848 246.766 62.7531C314.993 62.6848 385.841 57.6258 453.156 62.5708C459.218 62.6392 465.12 62.6392 470.863 62.6392H577.487" stroke="url(#paint2_linear_206_262)" stroke-opacity="0.27" stroke-width="3.08941" stroke-miterlimit="10"/>
<path d="M2 92.924H204.585C211.672 92.924 218.736 93.1291 225.778 93.4481C307.427 93.0607 390.922 90.5312 470.749 92.8328C481.345 92.9468 491.349 92.9468 500.692 92.9468H577.51" stroke="url(#paint3_linear_206_262)" stroke-opacity="0.27" stroke-width="3.08941" stroke-miterlimit="10"/>
<path d="M2 123.233H204.585C210.442 122.549 216.23 122.276 221.949 122.344C261.874 123.438 297.309 131.026 337.781 136.085C388.393 143.674 436.453 128.497 487.566 123.233C498.368 123.233 508.44 123.233 517.646 123.233H577.487" stroke="url(#paint4_linear_206_262)" stroke-opacity="0.27" stroke-width="3.08941" stroke-miterlimit="10"/>
<path d="M2 153.518H204.585C210.442 153.062 216.23 153.017 221.949 153.29C227.669 153.564 233.366 154.133 238.927 154.726C297.287 156.321 347.899 189.227 403.57 191.756C433.923 191.756 456.711 166.462 484.854 156.161C489.959 154.361 495.177 153.085 500.624 152.561C506.047 152.06 511.699 152.288 517.646 153.518H577.487" stroke="url(#paint5_linear_206_262)" stroke-opacity="0.27" stroke-width="3.08941" stroke-miterlimit="10"/>
<path d="M2 183.803H204.585C212.88 183.439 220.97 183.621 228.945 184.259C236.921 184.874 244.76 185.877 252.371 186.834C289.721 189.227 322.604 204.404 355.51 219.58C408.651 242.346 454.182 211.992 498.732 187.905C505.5 185.398 512.473 183.553 519.743 182.755C527.012 181.957 534.578 182.185 542.553 183.803H577.51" stroke="url(#paint6_linear_206_262)" stroke-opacity="0.27" stroke-width="3.08941" stroke-miterlimit="10"/>
<path d="M2 214.089H204.585C211.49 214.089 218.463 214.089 225.504 214.089C233.799 215.821 242.071 217.416 250.298 218.874C320.097 227.146 390.945 260.052 461.269 240.728C469.017 238.608 476.742 235.828 484.421 232.342C492.101 228.855 499.735 224.617 507.346 219.558C519.993 211.969 530.111 214.499 542.622 214.111C553.583 214.066 562.333 214.066 568.304 214.066H577.533" stroke="url(#paint7_linear_206_262)" stroke-opacity="0.27" stroke-width="3.08941" stroke-miterlimit="10"/>
<path d="M2 244.373H246.72C253.853 244.373 261.031 244.396 268.574 244.829C322.604 262.604 378.275 267.663 433.354 264.108C442.469 263.31 451.584 262.262 460.699 261.008C488.045 257.226 515.345 251.438 542.645 244.487C553.537 244.373 562.288 244.373 568.258 244.373H577.487" stroke="url(#paint8_linear_206_262)" stroke-opacity="0.27" stroke-width="3.08941" stroke-miterlimit="10"/>
<path d="M2 274.659H268.186C275.365 274.659 282.565 274.659 289.903 274.818C342.84 282.839 393.452 295.487 449.1 287.898C481.983 282.839 509.83 272.722 542.576 274.704C549.868 274.659 556.203 274.659 561.376 274.659H577.487" stroke="url(#paint9_linear_206_262)" stroke-opacity="0.27" stroke-width="3.08941" stroke-miterlimit="10"/>
<path d="M2 304.967H66.5355C74.4429 304.967 82.9201 304.967 91.8758 304.967C97.869 305.081 103.908 305.172 109.992 305.241C116.077 305.309 122.184 305.355 128.314 305.378C158.166 305.605 188.542 305.605 218.395 304.967C224.251 304.967 230.153 304.967 236.101 304.967H289.767C296.968 304.967 304.146 304.967 311.37 304.99C383.334 313.194 454.182 310.664 524.574 305.127C535.352 304.967 544.901 304.967 552.762 304.967H577.487" stroke="url(#paint10_linear_206_262)" stroke-opacity="0.27" stroke-width="3.08941" stroke-miterlimit="10"/>
<path d="M2 335.252H36.9567C45.7757 335.343 54.5719 335.389 63.3224 335.389C140.414 330.922 213.791 335.981 289.744 335.252H316.679C325.635 335.252 334.568 335.252 343.455 335.275C395.981 335.981 451.629 335.981 504.93 335.32C515.914 335.252 525.964 335.252 534.851 335.252H577.487" stroke="url(#paint11_linear_206_262)" stroke-opacity="0.27" stroke-width="3.08941" stroke-miterlimit="10"/>
<path d="M2 365.537C2 365.537 11.0012 365.537 26.5654 365.56C34.4045 365.377 42.2208 365.15 49.9915 364.739C137.907 348.606 223.932 361.276 311.324 365.537H370.778C377.022 365.537 383.197 365.537 389.327 365.537C416.24 366.335 446.593 366.335 474.304 365.537H577.51" stroke="url(#paint12_linear_206_262)" stroke-opacity="0.27" stroke-width="3.08941" stroke-miterlimit="10"/>
<path d="M2 395.823C2 395.823 7.76534 395.823 17.9744 395.846C26.93 395.162 35.8629 394.342 44.7046 393.043C130.319 363.806 221.403 373.924 310.959 395.686C318.479 395.8 325.658 395.823 332.767 395.823H577.487" stroke="url(#paint13_linear_206_262)" stroke-opacity="0.27" stroke-width="3.08941" stroke-miterlimit="10"/>
<path d="M2 426.107C2 426.107 7.76533 426.107 17.9288 426.13C25.6995 427.133 33.1967 427.064 40.4661 425.948C69.5891 419.453 92.3543 399.218 122.731 391.629C188.52 376.452 244.191 411.865 307.678 420.957C316.406 422.461 324.678 424.17 332.79 426.107C339.923 426.107 347.01 426.107 354.029 426.107H577.51" stroke="url(#paint14_linear_206_262)" stroke-opacity="0.27" stroke-width="3.08941" stroke-miterlimit="10"/>
<path d="M2 456.416C2 456.416 7.76536 456.416 18.0655 456.416C23.3523 456.667 28.7531 457.008 34.0855 457.145C69.5891 462.478 84.7659 424.536 115.142 414.418C140.437 404.3 168.284 409.359 193.578 416.947C231.543 429.595 266.956 444.771 307.837 450.081C316.451 451.927 324.632 453.955 332.722 456.097C339.9 456.393 346.987 456.393 354.006 456.416H577.487" stroke="url(#paint15_linear_206_262)" stroke-opacity="0.27" stroke-width="3.08941" stroke-miterlimit="10"/>
<path d="M2 486.701H18.1111C23.2839 486.701 29.619 486.701 36.8884 486.701C51.8601 482.736 72.0958 490.347 82.2137 477.677C145.473 404.3 234.027 470.088 308.475 479.226C316.565 481.346 324.632 483.716 332.722 486.359C339.877 486.678 346.964 486.678 354.006 486.701H577.487" stroke="url(#paint16_linear_206_262)" stroke-opacity="0.27" stroke-width="3.08941" stroke-miterlimit="10"/>
<path d="M2 516.986H36.9567C44.2945 516.986 52.6349 516.986 61.8412 516.895C69.5891 515.619 77.1775 518.171 82.2364 515.619C145.496 465.007 216.344 495.383 283.887 506.617C292.273 508.167 300.408 509.762 308.544 511.517C316.588 513.158 324.678 514.935 332.767 516.826C339.9 516.94 346.964 516.963 354.006 516.986H577.487" stroke="url(#paint17_linear_206_262)" stroke-opacity="0.27" stroke-width="3.08941" stroke-miterlimit="10"/>
<path d="M2 547.272H61.8412C71.0475 547.272 81.1198 547.272 91.9213 547.272C99.8743 545.221 107.873 543.489 115.871 541.985C155.614 535.878 196.085 533.349 236.465 537.861C244.601 538.385 252.645 539 260.666 539.661C268.619 540.344 276.549 541.051 284.411 541.803C292.433 542.487 300.477 543.284 308.521 544.196C316.565 545.107 324.655 546.133 332.745 547.272C339.877 547.272 346.942 547.272 353.983 547.272H577.465" stroke="url(#paint18_linear_206_262)" stroke-opacity="0.27" stroke-width="3.08941" stroke-miterlimit="10"/>
<path d="M2 577.557H108.625C114.368 577.557 120.27 577.534 126.308 577.489C141.85 577.192 157.323 576.987 172.727 576.828C188.132 576.668 203.491 576.623 218.85 576.623C234.209 576.623 249.568 576.691 264.95 576.85C280.355 577.01 295.783 577.215 311.301 577.511C318.479 577.511 325.635 577.511 332.767 577.511H577.487" stroke="url(#paint19_linear_206_262)" stroke-opacity="0.27" stroke-width="3.08941" stroke-miterlimit="10"/>
<path d="M2 577.555V2.06781" stroke="url(#paint20_linear_206_262)" stroke-opacity="0.27" stroke-width="3.08941" stroke-miterlimit="10"/>
<path d="M32.3087 577.556V517.714C32.3087 508.508 32.3087 498.436 32.3087 487.657C32.1036 472.526 31.9441 457.645 31.8757 442.879C31.8074 428.089 31.8074 413.437 31.8757 398.693C31.9441 383.949 32.0808 369.137 32.2859 354.097C32.3315 347.055 32.3543 339.968 32.3543 332.858V2.06836" stroke="url(#paint21_linear_206_262)" stroke-opacity="0.27" stroke-width="3.08941" stroke-miterlimit="10"/>
<path d="M62.594 577.556V542.599C62.594 535.261 62.594 526.921 62.594 517.646C59.4949 465.006 59.4949 414.394 60.3608 362.118C61.0673 345.369 61.8192 328.255 62.594 311.369V2.06836" stroke="url(#paint22_linear_206_262)" stroke-opacity="0.27" stroke-width="3.08941" stroke-miterlimit="10"/>
<path d="M92.8781 577.556V568.327C92.8781 562.333 92.8781 553.606 92.8781 542.508C79.7294 472.594 77.2 396.688 89.8017 326.432C90.7816 318.502 91.7843 310.344 92.8553 302.163C92.9237 295.988 92.9237 289.812 92.9237 283.659V2.06836" stroke="url(#paint23_linear_206_262)" stroke-opacity="0.27" stroke-width="3.08941" stroke-miterlimit="10"/>
<path d="M123.165 577.556C121.866 569.443 120.59 561.376 119.383 553.332C105.003 475.124 92.3561 394.158 117.241 316.884C119.041 309.296 120.955 301.388 123.097 293.413C123.143 286.804 123.143 280.218 123.143 273.633V2.06836" stroke="url(#paint24_linear_206_262)" stroke-opacity="0.27" stroke-width="3.08941" stroke-miterlimit="10"/>
<path d="M153.448 576.94C153.722 569.899 153.448 562.994 152.696 556.203C145.495 502.971 107.53 454.911 115.119 396.71C120.178 358.746 155.613 333.451 153.425 292.524C153.425 286.234 153.425 279.922 153.425 273.655V2.06836" stroke="url(#paint25_linear_206_262)" stroke-opacity="0.27" stroke-width="3.08941" stroke-miterlimit="10"/>
<path d="M183.665 575.505C183.619 566.777 182.753 558.254 181.09 549.777C153.083 475.124 110.082 396.688 175.871 323.31C183.46 318.251 185.989 305.604 183.756 292.501V2.06836" stroke="url(#paint26_linear_206_262)" stroke-opacity="0.27" stroke-width="3.08941" stroke-miterlimit="10"/>
<path d="M213.928 574.799C212.15 565.843 210.35 556.933 208.299 548.069C178.401 470.065 155.613 384.041 213.472 311.415C213.928 304.214 214.042 297.013 214.042 289.812V184.145C213.814 153.791 213.814 123.415 214.042 91.9673V2.04596" stroke="url(#paint27_linear_206_262)" stroke-opacity="0.27" stroke-width="3.08941" stroke-miterlimit="10"/>
<path d="M244.283 575.574C243.258 567.552 242.301 559.531 241.389 551.487C240.09 543.488 238.86 535.467 237.333 527.468C206.25 454.889 221.427 381.511 244.101 311.393C244.351 301.958 244.352 292.501 244.352 283.067V236.147C244.648 228.376 244.876 220.605 245.035 212.812C245.195 205.018 245.286 197.202 245.309 189.295C244.215 141.144 244.215 95.5906 244.352 48.7613V2.04596" stroke="url(#paint28_linear_206_262)" stroke-opacity="0.27" stroke-width="3.08941" stroke-miterlimit="10"/>
<path d="M274.612 576.94C274.361 568.782 274.133 560.624 273.974 552.489C273.769 544.285 273.609 536.104 273.427 527.855C256.814 465.006 266.932 399.217 274.429 332.836C274.612 325.703 274.612 318.548 274.612 311.369V273.633C275.432 268.004 276.139 262.466 276.731 256.975C277.301 251.505 277.779 246.082 278.167 240.681C284.661 163.908 274.543 90.5313 274.612 14.5106V2.06836" stroke="url(#paint29_linear_206_262)" stroke-opacity="0.27" stroke-width="3.08941" stroke-miterlimit="10"/>
<path d="M304.898 577.556C304.898 560.168 304.898 543.032 304.898 526.032C304.898 517.532 304.898 509.078 304.898 500.646C304.898 492.215 304.829 483.806 304.647 475.443C302.368 434.675 304.898 394.181 304.921 354.097V319.072C304.921 313.193 304.921 307.29 304.921 301.388C308.088 293.686 310.686 285.938 312.805 278.122C327.686 186.696 302.391 93.0835 304.921 2.06836" stroke="url(#paint30_linear_206_262)" stroke-opacity="0.27" stroke-width="3.08941" stroke-miterlimit="10"/>
<path d="M335.183 577.556V517.692C335.251 490.301 335.251 462.477 335.183 434.698C335.183 428.386 335.183 421.96 335.183 415.397V353.072C335.183 345.916 335.183 338.715 335.183 331.492C335.205 319.801 335.866 308.271 338.396 297.765C340.925 287.26 345.369 277.758 352.912 270.146C363.075 257.522 370.664 242.345 370.664 224.639C365.605 148.732 325.11 80.4138 335.16 2.04596" stroke="url(#paint31_linear_206_262)" stroke-opacity="0.27" stroke-width="3.08941" stroke-miterlimit="10"/>
<path d="M365.492 577.556V371.872C365.492 365.993 365.492 360.045 365.492 354.075C361.777 334.91 366.859 317.728 374.47 301.548C377 296.148 379.825 290.884 382.674 285.665C401.041 260.074 408.629 229.698 403.57 196.815C388.394 128.496 355.488 70.2959 365.469 2.04596" stroke="url(#paint32_linear_206_262)" stroke-opacity="0.27" stroke-width="3.08941" stroke-miterlimit="10"/>
<path d="M395.776 577.556V389.373C395.776 383.585 395.776 377.751 395.776 371.872C390.854 337.827 406.099 309.592 419.043 280.31C422.279 272.995 425.355 265.612 427.907 258.046C433.946 242.345 436.476 224.616 433.946 209.439C413.711 138.592 385.864 75.3321 395.776 2.04596" stroke="url(#paint33_linear_206_262)" stroke-opacity="0.27" stroke-width="3.08941" stroke-miterlimit="10"/>
<path d="M426.062 577.556V389.373C426.062 383.585 426.062 377.751 426.062 371.872C422.097 335.616 437.251 303.234 446.799 268.551C448.713 261.623 450.4 254.582 451.653 247.426C454.183 176.579 418.77 108.26 426.017 36.8884C426.062 26.0185 426.062 17.2907 426.062 11.2975V2.06836" stroke="url(#paint34_linear_206_262)" stroke-opacity="0.27" stroke-width="3.08941" stroke-miterlimit="10"/>
<path d="M456.349 577.556V370.824C461.59 324.291 466.74 278.259 468.016 232.022C468.221 222.793 468.289 213.541 468.13 204.244C466.854 156.321 456.736 110.767 456.326 61.8872C456.326 52.7036 456.326 44.3632 456.349 37.0027V2.04596" stroke="url(#paint35_linear_206_262)" stroke-opacity="0.27" stroke-width="3.08941" stroke-miterlimit="10"/>
<path d="M486.633 577.557V371.872C486.633 365.287 486.633 358.655 486.633 351.979C490.462 298.267 491.624 246.197 490.074 193.898C489.846 186.424 489.573 178.949 489.231 171.475C487.043 151.285 487.043 128.497 486.61 108.717C486.61 98.1889 486.61 88.2306 486.61 78.9103V2.09204" stroke="url(#paint36_linear_206_262)" stroke-opacity="0.27" stroke-width="3.08941" stroke-miterlimit="10"/>
<path d="M516.941 577.556V343.478C516.941 337.28 516.941 331.059 516.987 324.838C517.443 272.699 519.972 217.028 516.987 164.251C516.941 158.463 516.941 152.811 516.941 147.274V2.04596" stroke="url(#paint37_linear_206_262)" stroke-opacity="0.27" stroke-width="3.08941" stroke-miterlimit="10"/>
<path d="M547.226 577.556V289.812C547.818 262.603 547.818 232.227 547.226 204.631C547.226 197.726 547.226 190.889 547.226 184.144V2.06836" stroke="url(#paint38_linear_206_262)" stroke-opacity="0.27" stroke-width="3.08941" stroke-miterlimit="10"/>
<path d="M577.51 577.556V2.06836" stroke="url(#paint39_linear_206_262)" stroke-opacity="0.27" stroke-width="3.08941" stroke-miterlimit="10"/>
<defs>
<linearGradient id="paint0_linear_206_262" x1="289.732" y1="2" x2="289.732" y2="2.06836" gradientUnits="userSpaceOnUse">
<stop stop-opacity="0"/>
<stop offset="0.358333"/>
<stop offset="0.691666"/>
<stop offset="1" stop-opacity="0"/>
</linearGradient>
<linearGradient id="paint1_linear_206_262" x1="289.732" y1="30.437" x2="289.732" y2="32.3541" gradientUnits="userSpaceOnUse">
<stop stop-opacity="0"/>
<stop offset="0.358333"/>
<stop offset="0.691666"/>
<stop offset="1" stop-opacity="0"/>
</linearGradient>
<linearGradient id="paint2_linear_206_262" x1="289.744" y1="60.4046" x2="289.744" y2="62.7531" gradientUnits="userSpaceOnUse">
<stop stop-opacity="0"/>
<stop offset="0.358333"/>
<stop offset="0.691666"/>
<stop offset="1" stop-opacity="0"/>
</linearGradient>
<linearGradient id="paint3_linear_206_262" x1="289.755" y1="91.8773" x2="289.755" y2="93.4481" gradientUnits="userSpaceOnUse">
<stop stop-opacity="0"/>
<stop offset="0.358333"/>
<stop offset="0.691666"/>
<stop offset="1" stop-opacity="0"/>
</linearGradient>
<linearGradient id="paint4_linear_206_262" x1="289.744" y1="122.334" x2="289.744" y2="138.17" gradientUnits="userSpaceOnUse">
<stop stop-opacity="0"/>
<stop offset="0.358333"/>
<stop offset="0.691666"/>
<stop offset="1" stop-opacity="0"/>
</linearGradient>
<linearGradient id="paint5_linear_206_262" x1="289.744" y1="152.313" x2="289.744" y2="191.756" gradientUnits="userSpaceOnUse">
<stop stop-opacity="0"/>
<stop offset="0.358333"/>
<stop offset="0.691666"/>
<stop offset="1" stop-opacity="0"/>
</linearGradient>
<linearGradient id="paint6_linear_206_262" x1="289.755" y1="182.309" x2="289.755" y2="227.622" gradientUnits="userSpaceOnUse">
<stop stop-opacity="0"/>
<stop offset="0.358333"/>
<stop offset="0.691666"/>
<stop offset="1" stop-opacity="0"/>
</linearGradient>
<linearGradient id="paint7_linear_206_262" x1="289.767" y1="214.004" x2="289.767" y2="246.716" gradientUnits="userSpaceOnUse">
<stop stop-opacity="0"/>
<stop offset="0.358333"/>
<stop offset="0.691666"/>
<stop offset="1" stop-opacity="0"/>
</linearGradient>
<linearGradient id="paint8_linear_206_262" x1="289.744" y1="244.373" x2="289.744" y2="265.174" gradientUnits="userSpaceOnUse">
<stop stop-opacity="0"/>
<stop offset="0.358333"/>
<stop offset="0.691666"/>
<stop offset="1" stop-opacity="0"/>
</linearGradient>
<linearGradient id="paint9_linear_206_262" x1="289.744" y1="274.45" x2="289.744" y2="290.234" gradientUnits="userSpaceOnUse">
<stop stop-opacity="0"/>
<stop offset="0.358333"/>
<stop offset="0.691666"/>
<stop offset="1" stop-opacity="0"/>
</linearGradient>
<linearGradient id="paint10_linear_206_262" x1="289.744" y1="304.967" x2="289.744" y2="310.25" gradientUnits="userSpaceOnUse">
<stop stop-opacity="0"/>
<stop offset="0.358333"/>
<stop offset="0.691666"/>
<stop offset="1" stop-opacity="0"/>
</linearGradient>
<linearGradient id="paint11_linear_206_262" x1="289.744" y1="333.525" x2="289.744" y2="335.81" gradientUnits="userSpaceOnUse">
<stop stop-opacity="0"/>
<stop offset="0.358333"/>
<stop offset="0.691666"/>
<stop offset="1" stop-opacity="0"/>
</linearGradient>
<linearGradient id="paint12_linear_206_262" x1="289.755" y1="356.775" x2="289.755" y2="366.135" gradientUnits="userSpaceOnUse">
<stop stop-opacity="0"/>
<stop offset="0.358333"/>
<stop offset="0.691666"/>
<stop offset="1" stop-opacity="0"/>
</linearGradient>
<linearGradient id="paint13_linear_206_262" x1="289.744" y1="374.947" x2="289.744" y2="395.846" gradientUnits="userSpaceOnUse">
<stop stop-opacity="0"/>
<stop offset="0.358333"/>
<stop offset="0.691666"/>
<stop offset="1" stop-opacity="0"/>
</linearGradient>
<linearGradient id="paint14_linear_206_262" x1="289.755" y1="387.896" x2="289.755" y2="426.837" gradientUnits="userSpaceOnUse">
<stop stop-opacity="0"/>
<stop offset="0.358333"/>
<stop offset="0.691666"/>
<stop offset="1" stop-opacity="0"/>
</linearGradient>
<linearGradient id="paint15_linear_206_262" x1="289.744" y1="408.752" x2="289.744" y2="457.656" gradientUnits="userSpaceOnUse">
<stop stop-opacity="0"/>
<stop offset="0.358333"/>
<stop offset="0.691666"/>
<stop offset="1" stop-opacity="0"/>
</linearGradient>
<linearGradient id="paint16_linear_206_262" x1="289.744" y1="443.379" x2="289.744" y2="486.701" gradientUnits="userSpaceOnUse">
<stop stop-opacity="0"/>
<stop offset="0.358333"/>
<stop offset="0.691666"/>
<stop offset="1" stop-opacity="0"/>
</linearGradient>
<linearGradient id="paint17_linear_206_262" x1="289.744" y1="487.287" x2="289.744" y2="516.986" gradientUnits="userSpaceOnUse">
<stop stop-opacity="0"/>
<stop offset="0.358333"/>
<stop offset="0.691666"/>
<stop offset="1" stop-opacity="0"/>
</linearGradient>
<linearGradient id="paint18_linear_206_262" x1="289.732" y1="535.562" x2="289.732" y2="547.272" gradientUnits="userSpaceOnUse">
<stop stop-opacity="0"/>
<stop offset="0.358333"/>
<stop offset="0.691666"/>
<stop offset="1" stop-opacity="0"/>
</linearGradient>
<linearGradient id="paint19_linear_206_262" x1="289.744" y1="576.623" x2="289.744" y2="577.557" gradientUnits="userSpaceOnUse">
<stop stop-opacity="0"/>
<stop offset="0.358333"/>
<stop offset="0.691666"/>
<stop offset="1" stop-opacity="0"/>
</linearGradient>
<linearGradient id="paint20_linear_206_262" x1="2.5" y1="2.06781" x2="2.5" y2="577.555" gradientUnits="userSpaceOnUse">
<stop stop-opacity="0"/>
<stop offset="0.358333"/>
<stop offset="0.691666"/>
<stop offset="1" stop-opacity="0"/>
</linearGradient>
<linearGradient id="paint21_linear_206_262" x1="32.0894" y1="2.06836" x2="32.0894" y2="577.556" gradientUnits="userSpaceOnUse">
<stop stop-opacity="0"/>
<stop offset="0.358333"/>
<stop offset="0.691666"/>
<stop offset="1" stop-opacity="0"/>
</linearGradient>
<linearGradient id="paint22_linear_206_262" x1="61.2298" y1="2.06836" x2="61.2298" y2="577.556" gradientUnits="userSpaceOnUse">
<stop stop-opacity="0"/>
<stop offset="0.358333"/>
<stop offset="0.691666"/>
<stop offset="1" stop-opacity="0"/>
</linearGradient>
<linearGradient id="paint23_linear_206_262" x1="87.2468" y1="2.06836" x2="87.2468" y2="577.556" gradientUnits="userSpaceOnUse">
<stop stop-opacity="0"/>
<stop offset="0.358333"/>
<stop offset="0.691666"/>
<stop offset="1" stop-opacity="0"/>
</linearGradient>
<linearGradient id="paint24_linear_206_262" x1="113.129" y1="2.06836" x2="113.129" y2="577.556" gradientUnits="userSpaceOnUse">
<stop stop-opacity="0"/>
<stop offset="0.358333"/>
<stop offset="0.691666"/>
<stop offset="1" stop-opacity="0"/>
</linearGradient>
<linearGradient id="paint25_linear_206_262" x1="133.837" y1="2.06836" x2="133.837" y2="576.94" gradientUnits="userSpaceOnUse">
<stop stop-opacity="0"/>
<stop offset="0.358333"/>
<stop offset="0.691666"/>
<stop offset="1" stop-opacity="0"/>
</linearGradient>
<linearGradient id="paint26_linear_206_262" x1="162.867" y1="2.06836" x2="162.867" y2="575.505" gradientUnits="userSpaceOnUse">
<stop stop-opacity="0"/>
<stop offset="0.358333"/>
<stop offset="0.691666"/>
<stop offset="1" stop-opacity="0"/>
</linearGradient>
<linearGradient id="paint27_linear_206_262" x1="195.848" y1="2.04596" x2="195.848" y2="574.799" gradientUnits="userSpaceOnUse">
<stop stop-opacity="0"/>
<stop offset="0.358333"/>
<stop offset="0.691666"/>
<stop offset="1" stop-opacity="0"/>
</linearGradient>
<linearGradient id="paint28_linear_206_262" x1="232.532" y1="2.04596" x2="232.532" y2="575.574" gradientUnits="userSpaceOnUse">
<stop stop-opacity="0"/>
<stop offset="0.358333"/>
<stop offset="0.691666"/>
<stop offset="1" stop-opacity="0"/>
</linearGradient>
<linearGradient id="paint29_linear_206_262" x1="272.393" y1="2.06836" x2="272.393" y2="576.94" gradientUnits="userSpaceOnUse">
<stop stop-opacity="0"/>
<stop offset="0.358333"/>
<stop offset="0.691666"/>
<stop offset="1" stop-opacity="0"/>
</linearGradient>
<linearGradient id="paint30_linear_206_262" x1="310.61" y1="2.06836" x2="310.61" y2="577.556" gradientUnits="userSpaceOnUse">
<stop stop-opacity="0"/>
<stop offset="0.358333"/>
<stop offset="0.691666"/>
<stop offset="1" stop-opacity="0"/>
</linearGradient>
<linearGradient id="paint31_linear_206_262" x1="352.114" y1="2.04596" x2="352.114" y2="577.556" gradientUnits="userSpaceOnUse">
<stop stop-opacity="0"/>
<stop offset="0.358333"/>
<stop offset="0.691666"/>
<stop offset="1" stop-opacity="0"/>
</linearGradient>
<linearGradient id="paint32_linear_206_262" x1="384.36" y1="2.04596" x2="384.36" y2="577.556" gradientUnits="userSpaceOnUse">
<stop stop-opacity="0"/>
<stop offset="0.358333"/>
<stop offset="0.691666"/>
<stop offset="1" stop-opacity="0"/>
</linearGradient>
<linearGradient id="paint33_linear_206_262" x1="414.314" y1="2.04596" x2="414.314" y2="577.556" gradientUnits="userSpaceOnUse">
<stop stop-opacity="0"/>
<stop offset="0.358333"/>
<stop offset="0.691666"/>
<stop offset="1" stop-opacity="0"/>
</linearGradient>
<linearGradient id="paint34_linear_206_262" x1="438.41" y1="2.06836" x2="438.41" y2="577.556" gradientUnits="userSpaceOnUse">
<stop stop-opacity="0"/>
<stop offset="0.358333"/>
<stop offset="0.691666"/>
<stop offset="1" stop-opacity="0"/>
</linearGradient>
<linearGradient id="paint35_linear_206_262" x1="462.272" y1="2.04596" x2="462.272" y2="577.556" gradientUnits="userSpaceOnUse">
<stop stop-opacity="0"/>
<stop offset="0.358333"/>
<stop offset="0.691666"/>
<stop offset="1" stop-opacity="0"/>
</linearGradient>
<linearGradient id="paint36_linear_206_262" x1="488.675" y1="2.09204" x2="488.675" y2="577.557" gradientUnits="userSpaceOnUse">
<stop stop-opacity="0"/>
<stop offset="0.358333"/>
<stop offset="0.691666"/>
<stop offset="1" stop-opacity="0"/>
</linearGradient>
<linearGradient id="paint37_linear_206_262" x1="517.681" y1="2.04596" x2="517.681" y2="577.556" gradientUnits="userSpaceOnUse">
<stop stop-opacity="0"/>
<stop offset="0.358333"/>
<stop offset="0.691666"/>
<stop offset="1" stop-opacity="0"/>
</linearGradient>
<linearGradient id="paint38_linear_206_262" x1="547.448" y1="2.06836" x2="547.448" y2="577.556" gradientUnits="userSpaceOnUse">
<stop stop-opacity="0"/>
<stop offset="0.358333"/>
<stop offset="0.691666"/>
<stop offset="1" stop-opacity="0"/>
</linearGradient>
<linearGradient id="paint39_linear_206_262" x1="578.01" y1="2.06836" x2="578.01" y2="577.556" gradientUnits="userSpaceOnUse">
<stop stop-opacity="0"/>
<stop offset="0.358333"/>
<stop offset="0.691666"/>
<stop offset="1" stop-opacity="0"/>
</linearGradient>
</defs>
</svg>
