<svg width="220" height="218" viewBox="0 0 220 218" fill="none" xmlns="http://www.w3.org/2000/svg">
<path d="M156.43 66.974C155.759 65.8082 155.118 65.1475 154.875 64.9047C156.459 66.5174 157.858 68.3535 159.053 70.4131C170.594 90.4164 157.907 124.001 130.724 145.433C106.349 164.659 78.583 167.564 64.7876 153.526C64.9528 153.681 65.1665 153.904 65.3414 154.05C65.7008 154.342 66.1865 154.721 66.5751 154.954C67.3621 155.42 67.9838 155.77 69.3731 156.265C70.2572 156.576 71.4715 156.877 72.3945 157.052C73.3854 157.237 74.7164 157.353 75.7171 157.45C76.7566 157.548 78.1652 157.518 79.2047 157.489C80.0888 157.47 81.2643 157.373 82.1387 157.276C84.208 157.042 86.3842 156.732 89.8525 155.857C92.9613 155.07 96.1867 153.934 98.5086 153.001C99.9464 152.418 101.831 151.592 103.23 150.932C104.61 150.281 106.407 149.319 107.767 148.61C109.253 147.833 111.158 146.676 112.576 145.792C114.014 144.889 115.879 143.606 117.288 142.664C118.774 141.673 120.688 140.245 122.058 139.099C123.438 137.952 125.342 136.485 126.663 135.261C127.974 134.047 129.752 132.463 131.025 131.22C132.288 129.996 133.949 128.334 135.115 127.013C136.261 125.711 137.806 124.001 138.914 122.67C139.992 121.378 141.381 119.61 142.382 118.27C145.908 113.558 148.269 109.497 148.366 109.322C149.124 108.01 150.125 106.252 150.824 104.902C151.504 103.6 152.359 101.832 152.971 100.491C153.535 99.2572 154.225 97.5862 154.71 96.3135C155.186 95.0602 155.789 93.3795 156.177 92.1069C156.517 90.9896 156.945 89.5032 157.226 88.3763C157.508 87.2299 157.858 85.6852 158.033 84.5097C158.208 83.3147 158.46 81.7312 158.538 80.5265C158.635 79.0595 158.684 77.0971 158.625 75.6301C158.567 74.4254 158.334 72.4533 157.994 71.1612C157.819 70.4811 157.557 69.5873 157.314 68.9364C157.081 68.3244 156.712 67.5375 156.391 66.974H156.43Z" stroke="black" stroke-width="0.971507" stroke-miterlimit="10"/>
<path d="M63.0601 39.5573C68.5297 49.0392 80.1392 64.0393 88.9411 72.9966C116.124 51.5651 147.513 50.409 159.045 70.4124C150.243 61.4454 153.546 45.8915 166.429 35.7393C149.417 6.24434 103.135 7.95419 63.0504 39.5476L63.0601 39.5573Z" stroke="black" stroke-width="0.971507" stroke-miterlimit="10"/>
<path d="M79.5358 62.4552C108.477 39.6345 141.906 38.4007 154.186 59.7058" stroke="black" stroke-width="0.971507" stroke-miterlimit="10"/>
<path d="M166.437 35.7491C153.555 45.9014 150.242 61.4552 159.053 70.4222C170.595 90.4256 157.907 124.011 130.724 145.442C121.922 136.475 119.202 136.893 124.662 146.375C164.747 114.772 183.448 65.2441 166.437 35.7491Z" stroke="black" stroke-width="0.971507" stroke-miterlimit="10"/>
<path d="M154.187 59.696C166.477 81.0012 152.963 116.762 124.022 139.583" stroke="black" stroke-width="0.971507" stroke-miterlimit="10"/>
<path d="M172.071 70.5089C158.188 74.4921 154.069 85.0232 162.871 93.9902" stroke="black" stroke-width="0.971507" stroke-miterlimit="10"/>
<path d="M157.091 110.195C145.87 107.135 143.908 111.944 152.719 120.901" stroke="black" stroke-width="0.971507" stroke-miterlimit="10"/>
<path d="M124.663 146.375C119.193 136.893 121.913 136.485 130.725 145.442C103.542 166.874 72.1527 168.03 60.6209 148.026C51.819 139.059 34.1765 140.031 21.2943 150.183C38.3054 179.678 84.588 177.968 124.672 146.375H124.663Z" stroke="black" stroke-width="0.971507" stroke-miterlimit="10"/>
<path d="M124.02 139.595C95.0793 162.415 61.6497 163.649 49.3699 142.344" stroke="black" stroke-width="0.971507" stroke-miterlimit="10"/>
<path d="M83.829 167.962C85.6068 154.652 94.2241 151.116 103.026 160.083" stroke="black" stroke-width="0.971507" stroke-miterlimit="10"/>
<path d="M46.7474 169.323C55.1121 155.77 69.0727 152.04 77.8842 161.007" stroke="black" stroke-width="0.971507" stroke-miterlimit="10"/>
<path d="M88.9407 72.9968C97.7425 81.9638 100.463 81.546 95.0029 72.0641C135.087 40.461 181.36 38.7609 198.381 68.2558C185.499 78.4081 167.866 79.3796 159.054 70.4126C147.513 50.4092 116.133 51.5653 88.9504 72.9968H88.9407Z" stroke="black" stroke-width="0.971507" stroke-miterlimit="10"/>
<path d="M159.055 70.413C167.857 79.38 185.5 78.4085 198.382 68.2562C215.393 97.7512 196.691 147.279 156.607 178.882C151.137 169.4 139.528 154.4 130.726 145.433C157.909 124.001 170.587 90.4163 159.055 70.413Z" stroke="black" stroke-width="0.971507" stroke-miterlimit="10"/>
<path d="M162.872 93.9919C171.674 102.959 190.132 107.01 204.015 103.027" stroke="black" stroke-width="0.971507" stroke-miterlimit="10"/>
<path d="M152.711 120.911C161.513 129.878 177.805 139.652 189.026 142.712" stroke="black" stroke-width="0.971507" stroke-miterlimit="10"/>
<path d="M130.726 145.442C139.528 154.409 151.147 169.409 156.607 178.891C116.523 210.494 70.2498 212.194 53.229 182.699C66.1112 172.547 69.4241 156.993 60.6125 148.026C72.154 168.029 103.534 166.873 130.716 145.442H130.726Z" stroke="black" stroke-width="0.971507" stroke-miterlimit="10"/>
<path d="M103.03 160.082C111.832 169.049 117.554 187.168 115.776 200.478" stroke="black" stroke-width="0.971507" stroke-miterlimit="10"/>
<path d="M77.8861 161.005C86.688 169.972 87.0572 188.285 78.6925 201.837" stroke="black" stroke-width="0.971507" stroke-miterlimit="10"/>
<path d="M156.43 66.974C155.759 65.8082 155.118 65.1475 154.875 64.9047C156.459 66.5174 157.858 68.3535 159.053 70.4131C170.594 90.4164 157.907 124.001 130.724 145.433C106.349 164.659 78.583 167.564 64.7876 153.526C64.9528 153.681 65.1665 153.904 65.3414 154.05C65.7008 154.342 66.1865 154.721 66.5751 154.954C67.3621 155.42 67.9838 155.77 69.3731 156.265C70.2572 156.576 71.4715 156.877 72.3945 157.052C73.3854 157.237 74.7164 157.353 75.7171 157.45C76.7566 157.548 78.1652 157.518 79.2047 157.489C80.0888 157.47 81.2643 157.373 82.1387 157.276C84.208 157.042 86.3842 156.732 89.8525 155.857C92.9613 155.07 96.1867 153.934 98.5086 153.001C99.9464 152.418 101.831 151.592 103.23 150.932C104.61 150.281 106.407 149.319 107.767 148.61C109.253 147.833 111.158 146.676 112.576 145.792C114.014 144.889 115.879 143.606 117.288 142.664C118.774 141.673 120.688 140.245 122.058 139.099C123.438 137.952 125.342 136.485 126.663 135.261C127.974 134.047 129.752 132.463 131.025 131.22C132.288 129.996 133.949 128.334 135.115 127.013C136.261 125.711 137.806 124.001 138.914 122.67C139.992 121.378 141.381 119.61 142.382 118.27C145.908 113.558 148.269 109.497 148.366 109.322C149.124 108.01 150.125 106.252 150.824 104.902C151.504 103.6 152.359 101.832 152.971 100.491C153.535 99.2572 154.225 97.5862 154.71 96.3135C155.186 95.0602 155.789 93.3795 156.177 92.1069C156.517 90.9896 156.945 89.5032 157.226 88.3763C157.508 87.2299 157.858 85.6852 158.033 84.5097C158.208 83.3147 158.46 81.7312 158.538 80.5265C158.635 79.0595 158.684 77.0971 158.625 75.6301C158.567 74.4254 158.334 72.4533 157.994 71.1612C157.819 70.4811 157.557 69.5873 157.314 68.9364C157.081 68.3244 156.712 67.5375 156.391 66.974H156.43Z" stroke="black" stroke-width="0.971507" stroke-miterlimit="10"/>
<path d="M154.875 64.9044C146.074 55.9373 148.493 39.2177 160.277 27.6179C162.618 29.9981 164.678 32.7086 166.436 35.7494C183.448 65.2444 164.746 114.772 124.662 146.375C88.7158 174.714 47.7765 179.008 27.4429 158.315C39.2273 146.715 55.976 144.578 64.7876 153.545C65.1082 153.856 65.5648 154.244 65.9145 154.516C66.1088 154.672 66.3809 154.837 66.5849 154.973C67.0803 155.293 67.7798 155.663 68.3239 155.876C69.3731 156.284 70.5616 156.647 71.8893 156.964C72.6762 157.149 73.7546 157.304 74.5707 157.372C75.96 157.489 77.8252 157.538 79.2242 157.499C80.39 157.47 81.9347 157.304 83.1005 157.178C84.2566 157.052 85.7819 156.78 86.9185 156.547C88.026 156.323 89.4833 155.954 90.5714 155.682C92.8156 155.119 96.2742 153.943 98.975 152.826C100.345 152.262 102.152 151.466 103.483 150.824C104.862 150.164 106.669 149.202 108.02 148.483C109.458 147.725 111.303 146.598 112.683 145.734C114.121 144.83 115.986 143.538 117.395 142.596C118.862 141.615 120.737 140.196 122.097 139.089C123.486 137.952 125.381 136.475 126.702 135.251C128.013 134.037 129.781 132.463 131.054 131.219C132.317 129.986 133.988 128.334 135.144 127.013C136.291 125.711 137.835 124.001 138.943 122.67C140.031 121.359 141.44 119.571 142.46 118.211C144.626 115.306 146.734 112.149 148.502 109.137C149.27 107.835 150.251 106.067 150.951 104.717C151.66 103.357 152.544 101.511 153.166 100.112C153.719 98.878 154.409 97.207 154.885 95.944C155.381 94.6228 155.983 92.8255 156.401 91.4751C156.75 90.3773 157.139 88.8812 157.401 87.7639C157.683 86.5204 158.013 84.8591 158.208 83.6059C158.373 82.5664 158.742 79.8656 158.693 76.883C158.674 75.8144 158.577 74.396 158.431 73.337C158.295 72.3558 158.043 71.0443 157.732 70.1019C157.333 68.8584 157.1 68.2269 156.41 66.9834C156.265 66.7211 156.051 66.3713 155.866 66.1285C155.585 65.7496 155.177 65.2638 154.856 64.9141L154.875 64.9044Z" stroke="black" stroke-width="0.971507" stroke-miterlimit="10"/>
<path d="M63.0601 39.5573C68.5297 49.0392 80.1392 64.0393 88.9411 72.9966C116.124 51.5651 147.513 50.409 159.045 70.4124C150.243 61.4454 153.546 45.8915 166.429 35.7393C149.417 6.24434 103.135 7.95419 63.0504 39.5476L63.0601 39.5573Z" stroke="black" stroke-width="0.971507" stroke-miterlimit="10"/>
<path d="M70.249 50.4472C103.824 23.9736 142.597 22.5455 156.839 47.2509" stroke="black" stroke-width="0.971507" stroke-miterlimit="10"/>
<path d="M79.5358 62.4552C108.477 39.6345 141.906 38.4007 154.186 59.7058" stroke="black" stroke-width="0.971507" stroke-miterlimit="10"/>
<path d="M166.437 35.7491C153.555 45.9014 150.242 61.4552 159.053 70.4222C170.595 90.4256 157.907 124.011 130.724 145.442C121.922 136.475 119.202 136.893 124.662 146.375C164.747 114.772 183.448 65.2441 166.437 35.7491Z" stroke="black" stroke-width="0.971507" stroke-miterlimit="10"/>
<path d="M154.187 59.696C166.477 81.0012 152.963 116.762 124.022 139.583" stroke="black" stroke-width="0.971507" stroke-miterlimit="10"/>
<path d="M172.071 70.5089C158.188 74.4921 154.069 85.0232 162.871 93.9902" stroke="black" stroke-width="0.971507" stroke-miterlimit="10"/>
<path d="M157.091 110.195C145.87 107.135 143.908 111.944 152.719 120.901" stroke="black" stroke-width="0.971507" stroke-miterlimit="10"/>
<path d="M124.663 146.375C119.193 136.893 121.913 136.485 130.725 145.442C103.542 166.874 72.1527 168.03 60.6209 148.026C51.819 139.059 34.1765 140.031 21.2943 150.183C38.3054 179.678 84.588 177.968 124.672 146.375H124.663Z" stroke="black" stroke-width="0.971507" stroke-miterlimit="10"/>
<path d="M124.02 139.595C95.0793 162.415 61.6497 163.649 49.3699 142.344" stroke="black" stroke-width="0.971507" stroke-miterlimit="10"/>
<path d="M83.829 167.962C85.6068 154.652 94.2241 151.116 103.026 160.083" stroke="black" stroke-width="0.971507" stroke-miterlimit="10"/>
<path d="M46.7474 169.323C55.1121 155.77 69.0727 152.04 77.8842 161.007" stroke="black" stroke-width="0.971507" stroke-miterlimit="10"/>
<path d="M88.9407 72.9968C97.7425 81.9638 100.463 81.546 95.0029 72.0641C135.087 40.461 181.36 38.7609 198.381 68.2558C185.499 78.4081 167.866 79.3796 159.054 70.4126C147.513 50.4092 116.133 51.5653 88.9504 72.9968H88.9407Z" stroke="black" stroke-width="0.971507" stroke-miterlimit="10"/>
<path d="M159.055 70.413C167.857 79.38 185.5 78.4085 198.382 68.2562C215.393 97.7512 196.691 147.279 156.607 178.882C151.137 169.4 139.528 154.4 130.726 145.433C157.909 124.001 170.587 90.4163 159.055 70.413Z" stroke="black" stroke-width="0.971507" stroke-miterlimit="10"/>
<path d="M162.872 93.9919C171.674 102.959 190.132 107.01 204.015 103.027" stroke="black" stroke-width="0.971507" stroke-miterlimit="10"/>
<path d="M152.711 120.911C161.513 129.878 177.805 139.652 189.026 142.712" stroke="black" stroke-width="0.971507" stroke-miterlimit="10"/>
<path d="M130.726 145.442C139.528 154.409 151.147 169.409 156.607 178.891C116.523 210.494 70.2498 212.194 53.229 182.699C66.1112 172.547 69.4241 156.993 60.6125 148.026C72.154 168.029 103.534 166.873 130.716 145.442H130.726Z" stroke="black" stroke-width="0.971507" stroke-miterlimit="10"/>
<path d="M103.03 160.082C111.832 169.049 117.554 187.168 115.776 200.478" stroke="black" stroke-width="0.971507" stroke-miterlimit="10"/>
<path d="M77.8861 161.005C86.688 169.972 87.0572 188.285 78.6925 201.837" stroke="black" stroke-width="0.971507" stroke-miterlimit="10"/>
<path d="M154.876 64.9046C141.091 50.8663 113.325 53.7808 88.9401 72.9972C61.7573 94.4287 49.0792 128.014 60.611 148.017C51.8091 139.05 34.1665 140.022 21.2843 150.174C4.27324 120.679 22.9748 71.1514 63.0591 39.5483C99.0049 11.2094 139.944 6.91532 160.278 27.6084C148.494 39.2082 146.065 55.9279 154.876 64.8949V64.9046Z" stroke="black" stroke-width="0.971507" stroke-miterlimit="10"/>
<path d="M21.2939 150.182C34.176 140.03 51.8089 139.059 60.6205 148.026C49.0789 128.022 61.7669 94.4374 88.9496 73.0059C80.1478 64.0389 68.5285 49.0388 63.0687 39.5667C22.9843 71.1698 4.28276 120.697 21.2939 150.192V150.182Z" stroke="black" stroke-width="0.971507" stroke-miterlimit="10"/>
<path d="M35.2539 143.12C21.0019 118.415 36.6723 76.9218 70.2476 50.4482" stroke="black" stroke-width="0.971507" stroke-miterlimit="10"/>
<path d="M49.3701 142.343C37.0805 121.037 50.5942 85.2763 79.5354 62.4556" stroke="black" stroke-width="0.971507" stroke-miterlimit="10"/>
<path d="M15.6505 115.412C29.5334 111.429 47.9822 115.48 56.7938 124.447" stroke="black" stroke-width="0.971507" stroke-miterlimit="10"/>
<path d="M30.6392 75.7271C41.8601 78.7873 58.1522 88.5704 66.9541 97.5277" stroke="black" stroke-width="0.971507" stroke-miterlimit="10"/>
<path d="M63.0581 39.5573C68.5277 49.0392 80.1372 64.0393 88.939 72.9966C116.122 51.5651 147.511 50.409 159.043 70.4124C150.241 61.4454 153.544 45.8915 166.426 35.7393C149.415 6.24434 103.133 7.95419 63.0483 39.5476L63.0581 39.5573Z" stroke="black" stroke-width="0.971507" stroke-miterlimit="10"/>
<path d="M70.2472 50.4472C103.822 23.9736 142.595 22.5455 156.838 47.2509" stroke="black" stroke-width="0.971507" stroke-miterlimit="10"/>
<path d="M103.89 17.9698C102.112 31.2795 107.824 49.3981 116.636 58.3651" stroke="black" stroke-width="0.971507" stroke-miterlimit="10"/>
<path d="M140.983 16.6003C132.618 30.1529 132.988 48.4658 141.789 57.4328" stroke="black" stroke-width="0.971507" stroke-miterlimit="10"/>
<path d="M60.62 148.026C69.4219 156.993 66.1188 172.546 53.2366 182.699C36.2255 153.204 54.927 103.676 95.0114 72.0731C100.481 81.555 97.7608 81.9631 88.9492 73.0058C61.7665 94.4372 49.0882 128.022 60.62 148.026Z" stroke="black" stroke-width="0.971507" stroke-miterlimit="10"/>
<path d="M56.7935 124.448C65.5954 133.415 61.4762 143.946 47.5934 147.929" stroke="black" stroke-width="0.971507" stroke-miterlimit="10"/>
<path d="M66.9536 97.5275C75.7554 106.494 73.793 111.294 62.5818 108.233" stroke="black" stroke-width="0.971507" stroke-miterlimit="10"/>
<path d="M88.939 72.9968C97.7408 81.9638 100.461 81.546 95.0012 72.0641C135.086 40.461 181.358 38.7609 198.379 68.2558C185.497 78.4081 167.864 79.3796 159.053 70.4126C147.511 50.4092 116.131 51.5653 88.9487 72.9968H88.939Z" stroke="black" stroke-width="0.971507" stroke-miterlimit="10"/>
<path d="M116.635 58.3562C125.437 67.3232 134.055 63.7869 135.832 50.4773" stroke="black" stroke-width="0.971507" stroke-miterlimit="10"/>
<path d="M141.788 57.4332C150.59 66.4002 164.56 62.6696 172.925 49.1171" stroke="black" stroke-width="0.971507" stroke-miterlimit="10"/>
<path d="M154.876 64.9046C141.091 50.8663 113.325 53.7808 88.9401 72.9972C61.7573 94.4287 49.0792 128.014 60.611 148.017C51.8091 139.05 34.1665 140.022 21.2843 150.174C4.27324 120.679 22.9748 71.1514 63.0591 39.5483C99.0049 11.2094 139.944 6.91532 160.278 27.6084C148.494 39.2082 146.065 55.9279 154.876 64.8949V64.9046Z" stroke="black" stroke-width="0.971507" stroke-miterlimit="10"/>
<path d="M27.4454 158.315C25.1041 155.935 23.0444 153.224 21.286 150.183C34.1682 140.031 51.8011 139.06 60.6127 148.027C61.7979 150.086 63.2066 151.922 64.7901 153.535C55.9883 144.568 39.2298 146.715 27.4454 158.305V158.315Z" stroke="black" stroke-width="0.971507" stroke-miterlimit="10"/>
<path d="M124.663 146.375C119.193 136.893 121.913 136.485 130.725 145.442C103.542 166.874 72.1527 168.03 60.6209 148.026C51.819 139.059 34.1765 140.031 21.2943 150.183C38.3054 179.678 84.588 177.968 124.672 146.375H124.663Z" stroke="black" stroke-width="0.971507" stroke-miterlimit="10"/>
<path d="M124.02 139.594C95.0793 162.414 61.6497 163.648 49.3699 142.343" stroke="black" stroke-width="0.971507" stroke-miterlimit="10"/>
<path d="M130.726 145.443C139.528 154.41 151.147 169.41 156.607 178.892C116.523 210.495 70.2498 212.195 53.229 182.7C66.1112 172.548 69.4241 156.994 60.6125 148.027C72.154 168.03 103.534 166.874 130.716 145.443H130.726Z" stroke="black" stroke-width="0.971507" stroke-miterlimit="10"/>
<path d="M27.4454 158.315C25.1041 155.935 23.0444 153.224 21.286 150.183C34.1682 140.031 51.8011 139.06 60.6127 148.027C61.7979 150.086 63.2066 151.922 64.7901 153.535C55.9883 144.568 39.2298 146.715 27.4454 158.305V158.315Z" stroke="black" stroke-width="0.971507" stroke-miterlimit="10"/>
<path d="M63.2441 151.466C62.5349 150.242 61.6605 149.086 60.621 148.027C49.0795 128.024 61.7674 94.4388 88.9502 73.0074C113.325 53.7812 141.091 50.8764 154.886 64.9147C154.566 64.6038 154.109 64.2152 153.759 63.9432C153.565 63.7877 153.293 63.6226 153.089 63.4866C152.594 63.166 151.894 62.7968 151.35 62.5831C150.748 62.3499 149.941 62.0585 149.32 61.8642C148.863 61.7282 148.251 61.6019 147.785 61.4853C146.998 61.3007 145.919 61.1452 145.103 61.0772C143.714 60.9607 141.849 60.9121 140.45 60.9509C139.284 60.9801 137.739 61.1452 136.573 61.2715C135.417 61.3978 133.892 61.6699 132.755 61.903C131.648 62.1265 130.191 62.4956 129.103 62.7677C126.858 63.3311 123.4 64.5067 120.699 65.6239C119.329 66.1874 117.522 66.984 116.191 67.6252C114.812 68.2858 113.005 69.2476 111.654 69.9665C110.216 70.7243 108.371 71.8513 106.991 72.7159C105.553 73.6194 103.688 74.9115 102.279 75.8539C100.812 76.8351 98.9373 78.2535 97.5771 79.361C96.1879 80.4977 94.2935 81.9744 92.9722 83.1985C91.6607 84.4128 89.8828 85.9964 88.6101 87.2399C87.3471 88.464 85.6859 90.1253 84.5201 91.4466C83.3737 92.7484 81.829 94.4582 80.7215 95.7892C79.6334 97.1007 78.2247 98.8883 77.2046 100.248C75.0284 103.153 72.93 106.311 71.1619 109.322C70.3944 110.624 69.4131 112.392 68.7136 113.743C68.0044 115.103 67.1204 116.949 66.4986 118.348C65.9449 119.581 65.2551 121.252 64.7791 122.515C64.2836 123.837 63.6812 125.634 63.2635 126.984C62.9138 128.082 62.5251 129.578 62.2628 130.695C61.9811 131.939 61.6508 133.6 61.4565 134.853C61.3011 135.854 60.9222 138.565 60.9708 141.576C60.9805 142.266 61.0193 143.189 61.0971 143.879C61.1942 144.763 61.3399 145.938 61.5342 146.803C61.7188 147.6 62.0103 148.659 62.292 149.426C62.5252 150.067 62.9429 150.874 63.2538 151.476L63.2441 151.466Z" stroke="black" stroke-width="0.971507" stroke-miterlimit="10"/>
<path d="M21.2939 150.182C34.176 140.03 51.8089 139.059 60.6205 148.026C49.0789 128.022 61.7669 94.4374 88.9496 73.0059C80.1478 64.0389 68.5285 49.0388 63.0687 39.5667C22.9843 71.1698 4.28276 120.697 21.2939 150.192V150.182Z" stroke="black" stroke-width="0.971507" stroke-miterlimit="10"/>
<path d="M15.6505 115.412C29.5334 111.429 47.9822 115.48 56.7938 124.447" stroke="black" stroke-width="0.971507" stroke-miterlimit="10"/>
<path d="M30.6392 75.7271C41.8601 78.7873 58.1522 88.5704 66.9541 97.5277" stroke="black" stroke-width="0.971507" stroke-miterlimit="10"/>
<path d="M63.0581 39.5573C68.5277 49.0392 80.1372 64.0393 88.939 72.9966C116.122 51.5651 147.511 50.409 159.043 70.4124C150.241 61.4454 153.544 45.8915 166.426 35.7393C149.415 6.24434 103.133 7.95419 63.0483 39.5476L63.0581 39.5573Z" stroke="black" stroke-width="0.971507" stroke-miterlimit="10"/>
<path d="M103.89 17.9698C102.112 31.2795 107.824 49.3981 116.636 58.3651" stroke="black" stroke-width="0.971507" stroke-miterlimit="10"/>
<path d="M140.983 16.6003C132.618 30.1529 132.988 48.4658 141.789 57.4328" stroke="black" stroke-width="0.971507" stroke-miterlimit="10"/>
<path d="M60.62 148.026C69.4219 156.993 66.1188 172.546 53.2366 182.699C36.2255 153.204 54.927 103.676 95.0114 72.0731C100.481 81.555 97.7608 81.9631 88.9492 73.0058C61.7665 94.4372 49.0882 128.022 60.62 148.026Z" stroke="black" stroke-width="0.971507" stroke-miterlimit="10"/>
<path d="M65.4758 158.742C53.1862 137.437 66.6999 101.676 95.6411 78.8551" stroke="black" stroke-width="0.971507" stroke-miterlimit="10"/>
<path d="M56.7935 124.448C65.5954 133.415 61.4762 143.946 47.5934 147.929" stroke="black" stroke-width="0.971507" stroke-miterlimit="10"/>
<path d="M66.9536 97.5275C75.7554 106.494 73.793 111.294 62.5818 108.233" stroke="black" stroke-width="0.971507" stroke-miterlimit="10"/>
<path d="M88.939 72.9968C97.7408 81.9638 100.461 81.546 95.0012 72.0641C135.086 40.461 181.358 38.7609 198.379 68.2558C185.497 78.4081 167.864 79.3796 159.053 70.4126C147.511 50.4092 116.131 51.5653 88.9487 72.9968H88.939Z" stroke="black" stroke-width="0.971507" stroke-miterlimit="10"/>
<path d="M95.6403 78.8451C124.581 56.0244 158.011 54.7906 170.291 76.0957" stroke="black" stroke-width="0.971507" stroke-miterlimit="10"/>
<path d="M116.635 58.3562C125.437 67.3232 134.055 63.7869 135.832 50.4773" stroke="black" stroke-width="0.971507" stroke-miterlimit="10"/>
<path d="M141.788 57.4332C150.59 66.4002 164.56 62.6696 172.925 49.1171" stroke="black" stroke-width="0.971507" stroke-miterlimit="10"/>
<path d="M63.2441 151.466C62.5349 150.242 61.6605 149.086 60.621 148.027C49.0795 128.024 61.7674 94.4388 88.9502 73.0074C113.325 53.7812 141.091 50.8764 154.886 64.9147C154.566 64.6038 154.109 64.2152 153.759 63.9432C153.565 63.7877 153.293 63.6226 153.089 63.4866C152.594 63.166 151.894 62.7968 151.35 62.5831C150.748 62.3499 149.941 62.0585 149.32 61.8642C148.863 61.7282 148.251 61.6019 147.785 61.4853C146.998 61.3007 145.919 61.1452 145.103 61.0772C143.714 60.9607 141.849 60.9121 140.45 60.9509C139.284 60.9801 137.739 61.1452 136.573 61.2715C135.417 61.3978 133.892 61.6699 132.755 61.903C131.648 62.1265 130.191 62.4956 129.103 62.7677C126.858 63.3311 123.4 64.5067 120.699 65.6239C119.329 66.1874 117.522 66.984 116.191 67.6252C114.812 68.2858 113.005 69.2476 111.654 69.9665C110.216 70.7243 108.371 71.8513 106.991 72.7159C105.553 73.6194 103.688 74.9115 102.279 75.8539C100.812 76.8351 98.9373 78.2535 97.5771 79.361C96.1879 80.4977 94.2935 81.9744 92.9722 83.1985C91.6607 84.4128 89.8828 85.9964 88.6101 87.2399C87.3471 88.464 85.6859 90.1253 84.5201 91.4466C83.3737 92.7484 81.829 94.4582 80.7215 95.7892C79.6334 97.1007 78.2247 98.8883 77.2046 100.248C75.0284 103.153 72.93 106.311 71.1619 109.322C70.3944 110.624 69.4131 112.392 68.7136 113.743C68.0044 115.103 67.1204 116.949 66.4986 118.348C65.9449 119.581 65.2551 121.252 64.7791 122.515C64.2836 123.837 63.6812 125.634 63.2635 126.984C62.9138 128.082 62.5251 129.578 62.2628 130.695C61.9811 131.939 61.6508 133.6 61.4565 134.853C61.3011 135.854 60.9222 138.565 60.9708 141.576C60.9805 142.266 61.0193 143.189 61.0971 143.879C61.1942 144.763 61.3399 145.938 61.5342 146.803C61.7188 147.6 62.0103 148.659 62.292 149.426C62.5252 150.067 62.9429 150.874 63.2538 151.476L63.2441 151.466Z" stroke="black" stroke-width="0.971507" stroke-miterlimit="10"/>
<path d="M97.587 79.3412C94.8085 81.5951 91.1847 84.7136 88.6199 87.2104C84.0539 91.6599 80.741 95.7305 80.7119 95.7694C79.6626 97.0809 78.254 98.8199 77.2436 100.17C76.243 101.501 74.9314 103.299 74.0376 104.707C73.2021 106.028 72.0266 107.748 71.2591 109.118C70.5208 110.439 69.5007 112.188 68.8012 113.538C68.1212 114.84 67.2857 116.628 66.6542 117.949C65.6924 119.97 64.0505 124.225 63.4482 126.333C63.079 127.635 62.535 129.354 62.2532 130.676C61.8452 132.57 61.3594 135.115 61.1651 137.039C61.0583 138.049 60.9417 139.409 60.9612 140.43C60.9709 141.139 60.9611 142.091 61 142.8C61.0583 143.655 61.1749 144.782 61.3012 145.627C61.4177 146.453 61.6509 147.551 61.9132 148.338C62.0298 148.687 62.1658 149.154 62.3116 149.494C62.5642 150.096 62.9333 150.883 63.2345 151.456C68.5 160.588 64.5849 173.733 53.2279 182.69C36.2168 153.195 54.9184 103.668 95.0028 72.0646C130.949 43.7257 171.888 39.4317 192.221 60.1248C180.437 71.7246 163.688 73.8619 154.877 64.8949C154.712 64.7394 154.498 64.516 154.323 64.3703C153.964 64.0788 153.478 63.6999 153.089 63.4668C152.302 63.0004 151.681 62.6507 150.291 62.1552C149.407 61.8346 148.193 61.5432 147.27 61.3683C146.279 61.1837 144.948 61.0672 143.947 60.97C142.908 60.8728 141.499 60.902 140.46 60.9311C139.575 60.9506 138.4 61.0477 137.526 61.1449C135.466 61.378 133.29 61.6889 129.812 62.5633C126.693 63.3502 123.478 64.4868 121.156 65.4195C119.718 66.0024 117.833 66.8282 116.434 67.4888C115.055 68.1397 113.257 69.1015 111.897 69.8107C110.411 70.5879 108.507 71.744 107.088 72.6281C105.65 73.5316 103.785 74.814 102.377 75.7563C100.89 76.7473 98.9859 78.1948 97.6064 79.312L97.587 79.3412Z" stroke="black" stroke-width="0.971507" stroke-miterlimit="10"/>
<path d="M21.2962 150.183C34.1784 140.031 51.8112 139.06 60.6228 148.027C49.0813 128.023 61.7692 94.4384 88.952 73.0069C80.1501 64.0399 68.5309 49.0398 63.071 39.5676C22.9866 71.1708 4.28508 120.698 21.2962 150.193V150.183Z" stroke="black" stroke-width="0.971507" stroke-miterlimit="10"/>
<path d="M15.6527 115.413C29.5355 111.43 47.9844 115.481 56.796 124.448" stroke="black" stroke-width="0.971507" stroke-miterlimit="10"/>
<path d="M30.6412 75.728C41.8621 78.7883 58.1543 88.5714 66.9562 97.5287" stroke="black" stroke-width="0.971507" stroke-miterlimit="10"/>
<path d="M63.0609 39.5583C68.5305 49.0402 80.14 64.0403 88.9418 72.9976C116.125 51.5661 147.514 50.41 159.046 70.4134C150.244 61.4463 153.547 45.8925 166.429 35.7403C149.418 6.24532 103.136 7.95517 63.0511 39.5486L63.0609 39.5583Z" stroke="black" stroke-width="0.971507" stroke-miterlimit="10"/>
<path d="M103.892 17.9707C102.115 31.2804 107.827 49.399 116.639 58.366" stroke="black" stroke-width="0.971507" stroke-miterlimit="10"/>
<path d="M140.986 16.6013C132.621 30.1538 132.99 48.4668 141.792 57.4338" stroke="black" stroke-width="0.971507" stroke-miterlimit="10"/>
<path d="M60.6228 148.028C69.4247 156.995 66.1216 172.549 53.2394 182.701C36.2283 153.206 54.9298 103.679 95.0142 72.0754C100.484 81.5574 97.7636 81.9654 88.952 73.0081C61.7693 94.4395 49.0911 128.025 60.6228 148.028Z" stroke="black" stroke-width="0.971507" stroke-miterlimit="10"/>
<path d="M65.479 158.743C53.1894 137.438 66.7031 101.677 95.6443 78.856" stroke="black" stroke-width="0.971507" stroke-miterlimit="10"/>
<path d="M56.7965 124.45C65.5983 133.417 61.4792 143.948 47.5963 147.931" stroke="black" stroke-width="0.971507" stroke-miterlimit="10"/>
<path d="M66.9567 97.5289C75.7586 106.496 73.7962 111.295 62.585 108.235" stroke="black" stroke-width="0.971507" stroke-miterlimit="10"/>
<path d="M88.9412 72.9978C97.743 81.9648 100.463 81.547 95.0034 72.0651C135.088 40.462 181.361 38.7619 198.381 68.2568C185.499 78.4091 167.866 79.3806 159.055 70.4135C147.513 50.4102 116.134 51.5663 88.9509 72.9978H88.9412Z" stroke="black" stroke-width="0.971507" stroke-miterlimit="10"/>
<path d="M95.6423 78.846C124.584 56.0253 158.013 54.7914 170.293 76.0966" stroke="black" stroke-width="0.971507" stroke-miterlimit="10"/>
<path d="M116.637 58.3572C125.439 67.3242 134.057 63.7879 135.834 50.4783" stroke="black" stroke-width="0.971507" stroke-miterlimit="10"/>
<path d="M141.79 57.4341C150.592 66.4012 164.562 62.6706 172.927 49.118" stroke="black" stroke-width="0.971507" stroke-miterlimit="10"/>
<path d="M53.2392 182.701C40.3667 192.853 22.7241 193.815 13.9126 184.857C-8.5681 145.871 16.147 80.401 69.1233 38.6359C77.9251 47.6029 89.5444 62.6029 95.0043 72.0751C54.9199 103.678 36.2184 153.206 53.2294 182.701H53.2392Z" stroke="black" stroke-width="0.971507" stroke-miterlimit="10"/>
<path d="M47.5957 147.931C33.7226 151.914 15.2639 147.863 6.46204 138.896" stroke="black" stroke-width="0.971507" stroke-miterlimit="10"/>
<path d="M62.5859 108.245C51.365 105.185 35.0729 95.4018 26.271 86.4445" stroke="black" stroke-width="0.971507" stroke-miterlimit="10"/>
<path d="M95.0051 72.0748C89.5355 62.6026 77.926 47.5928 69.1241 38.6355C122.1 -3.12962 183.276 -5.39324 205.757 33.6031C214.559 42.5701 211.256 58.1239 198.374 68.2762C181.362 38.7812 135.08 40.491 94.9954 72.0845L95.0051 72.0748Z" stroke="black" stroke-width="0.971507" stroke-miterlimit="10"/>
<path d="M135.837 50.488C137.615 37.1783 131.902 19.0597 123.091 10.1024" stroke="black" stroke-width="0.971507" stroke-miterlimit="10"/>
<path d="M172.922 49.1186C181.287 35.5661 180.917 17.2531 172.115 8.28613" stroke="black" stroke-width="0.971507" stroke-miterlimit="10"/>
<path d="M154.875 64.9044C163.677 73.8714 180.436 71.7244 192.22 60.1343C194.561 62.5145 196.621 65.225 198.379 68.2658C215.391 97.7607 196.689 147.288 156.605 178.891C120.659 207.23 79.7195 211.524 59.3859 190.831C71.1702 179.231 73.599 162.512 64.7874 153.545C78.5731 167.583 106.339 164.668 130.724 145.452C157.906 124.021 170.585 90.4356 159.053 70.4322C157.868 68.3727 156.459 66.5365 154.875 64.9238V64.9044Z" stroke="black" stroke-width="0.971507" stroke-miterlimit="10"/>
<path d="M63.0577 39.5573C68.5273 49.0392 80.1368 64.0393 88.9387 72.9966C116.121 51.5651 147.511 50.409 159.043 70.4124C150.241 61.4454 153.544 45.8915 166.426 35.7393C149.415 6.24434 103.132 7.95419 63.048 39.5476L63.0577 39.5573Z" stroke="black" stroke-width="0.971507" stroke-miterlimit="10"/>
<path d="M166.436 35.7491C153.554 45.9014 150.241 61.4552 159.053 70.4222C170.594 90.4256 157.906 124.011 130.724 145.442C121.922 136.475 119.202 136.893 124.662 146.375C164.746 114.772 183.447 65.2441 166.436 35.7491Z" stroke="black" stroke-width="0.971507" stroke-miterlimit="10"/>
<path d="M172.071 70.5089C158.188 74.4921 154.069 85.0232 162.871 93.9902" stroke="black" stroke-width="0.971507" stroke-miterlimit="10"/>
<path d="M157.091 110.195C145.87 107.135 143.907 111.944 152.719 120.901" stroke="black" stroke-width="0.971507" stroke-miterlimit="10"/>
<path d="M124.662 146.375C119.193 136.893 121.913 136.485 130.724 145.442C103.542 166.874 72.1521 168.03 60.6203 148.026C51.8184 139.059 34.1759 140.031 21.2937 150.183C38.3048 179.678 84.5874 177.968 124.672 146.375H124.662Z" stroke="black" stroke-width="0.971507" stroke-miterlimit="10"/>
<path d="M83.8282 167.962C85.6061 154.652 94.2234 151.116 103.025 160.083" stroke="black" stroke-width="0.971507" stroke-miterlimit="10"/>
<path d="M46.7467 169.323C55.1114 155.77 69.0719 152.04 77.8835 161.007" stroke="black" stroke-width="0.971507" stroke-miterlimit="10"/>
<path d="M88.938 72.9968C97.7398 81.9638 100.46 81.546 95.0002 72.0641C135.085 40.461 181.357 38.7609 198.378 68.2558C185.496 78.4081 167.863 79.3796 159.052 70.4126C147.51 50.4092 116.13 51.5653 88.9477 72.9968H88.938Z" stroke="black" stroke-width="0.971507" stroke-miterlimit="10"/>
<path d="M95.6394 78.8451C124.581 56.0244 158.01 54.7906 170.29 76.0957" stroke="black" stroke-width="0.971507" stroke-miterlimit="10"/>
<path d="M159.053 70.413C167.854 79.38 185.497 78.4085 198.379 68.2562C215.39 97.7512 196.689 147.279 156.604 178.882C151.135 169.4 139.525 154.4 130.724 145.433C157.906 124.001 170.584 90.4163 159.053 70.413Z" stroke="black" stroke-width="0.971507" stroke-miterlimit="10"/>
<path d="M170.294 76.0962C182.583 97.4013 169.07 133.163 140.128 155.983" stroke="black" stroke-width="0.971507" stroke-miterlimit="10"/>
<path d="M184.408 75.3282C198.66 100.034 182.99 141.527 149.415 168" stroke="black" stroke-width="0.971507" stroke-miterlimit="10"/>
<path d="M162.872 93.9919C171.674 102.959 190.133 107.01 204.016 103.027" stroke="black" stroke-width="0.971507" stroke-miterlimit="10"/>
<path d="M152.709 120.911C161.511 129.878 177.803 139.652 189.024 142.712" stroke="black" stroke-width="0.971507" stroke-miterlimit="10"/>
<path d="M130.722 145.442C139.524 154.409 151.143 169.409 156.603 178.891C116.519 210.494 70.246 212.194 53.2252 182.699C66.1074 172.547 69.4203 156.993 60.6087 148.026C72.1502 168.029 103.53 166.873 130.713 145.442H130.722Z" stroke="black" stroke-width="0.971507" stroke-miterlimit="10"/>
<path d="M140.126 155.992C111.185 178.812 77.7556 180.046 65.4757 158.741" stroke="black" stroke-width="0.971507" stroke-miterlimit="10"/>
<path d="M149.423 167.99C115.848 194.463 77.0752 195.892 62.8329 171.186" stroke="black" stroke-width="0.971507" stroke-miterlimit="10"/>
<path d="M103.026 160.082C111.828 169.049 117.55 187.168 115.772 200.478" stroke="black" stroke-width="0.971507" stroke-miterlimit="10"/>
<path d="M77.8823 161.005C86.6842 169.972 87.0534 188.285 78.6887 201.837" stroke="black" stroke-width="0.971507" stroke-miterlimit="10"/>
<path d="M198.38 68.2565C211.252 58.1042 214.565 42.5504 205.763 33.5834C228.244 72.57 203.529 138.04 150.552 179.805C159.354 188.772 162.075 188.354 156.615 178.872C196.699 147.269 215.401 97.7417 198.389 68.2467L198.38 68.2565Z" stroke="black" stroke-width="0.971507" stroke-miterlimit="10"/>
<path d="M204.015 103.027C217.888 99.0434 222.017 88.5123 213.215 79.5453" stroke="black" stroke-width="0.971507" stroke-miterlimit="10"/>
<path d="M189.023 142.713C200.244 145.773 202.206 140.964 193.395 132.007" stroke="black" stroke-width="0.971507" stroke-miterlimit="10"/>
<path d="M156.605 178.881C162.074 188.354 159.354 188.771 150.543 179.814C97.5662 221.579 36.3905 223.843 13.9098 184.846C22.7116 193.813 40.3542 192.842 53.2364 182.69C70.2475 212.185 116.53 210.475 156.614 178.881H156.605Z" stroke="black" stroke-width="0.971507" stroke-miterlimit="10"/>
<path d="M115.772 200.469C113.994 213.778 105.376 217.305 96.5746 208.347" stroke="black" stroke-width="0.971507" stroke-miterlimit="10"/>
<path d="M78.688 201.837C70.3234 215.39 56.3628 219.12 47.5609 210.153" stroke="black" stroke-width="0.971507" stroke-miterlimit="10"/>
<path d="M154.875 64.9044C163.677 73.8714 180.436 71.7244 192.22 60.1343C194.561 62.5145 196.621 65.225 198.379 68.2658C215.391 97.7607 196.689 147.288 156.605 178.891C120.659 207.23 79.7195 211.524 59.3859 190.831C71.1702 179.231 73.599 162.512 64.7874 153.545C78.5731 167.583 106.339 164.668 130.724 145.452C157.906 124.021 170.585 90.4356 159.053 70.4322C157.868 68.3727 156.459 66.5365 154.875 64.9238V64.9044Z" stroke="black" stroke-width="0.971507" stroke-miterlimit="10"/>
<path d="M64.7883 153.535C63.2048 151.922 61.8058 150.086 60.6108 148.027C61.6504 149.086 62.5247 150.242 63.2339 151.466C63.3893 151.728 63.5933 152.078 63.7779 152.321C64.0596 152.7 64.4677 153.185 64.7883 153.535Z" stroke="black" stroke-width="0.971507" stroke-miterlimit="10"/>
<path d="M124.663 146.375C119.193 136.893 121.913 136.485 130.725 145.442C103.542 166.874 72.1527 168.03 60.6209 148.026C51.819 139.059 34.1765 140.031 21.2943 150.183C38.3054 179.678 84.588 177.968 124.672 146.375H124.663Z" stroke="black" stroke-width="0.971507" stroke-miterlimit="10"/>
<path d="M64.7883 153.535C63.2048 151.922 61.8058 150.086 60.6108 148.027C61.6504 149.086 62.5247 150.242 63.2339 151.466C63.3893 151.728 63.5933 152.078 63.7779 152.321C64.0596 152.7 64.4677 153.185 64.7883 153.535Z" stroke="black" stroke-width="0.971507" stroke-miterlimit="10"/>
<path d="M63.2442 151.466C63.5162 151.903 63.9048 152.476 64.2157 152.884C64.3711 153.098 64.614 153.35 64.7986 153.535C73.6005 162.502 71.1814 179.222 59.3971 190.821C57.0557 188.441 54.9961 185.731 53.2377 182.69C64.5946 173.742 68.5098 160.588 63.2442 151.456V151.466Z" stroke="black" stroke-width="0.971507" stroke-miterlimit="10"/>
<path d="M124.663 146.375C119.193 136.893 121.913 136.485 130.725 145.442C103.542 166.874 72.1526 168.03 60.6208 148.026C51.8189 139.059 34.1764 140.031 21.2942 150.183C38.3053 179.678 84.5879 177.968 124.672 146.375H124.663Z" stroke="black" stroke-width="0.971507" stroke-miterlimit="10"/>
<path d="M149.424 167.991C115.848 194.464 77.0754 195.893 62.8331 171.187" stroke="black" stroke-width="0.971507" stroke-miterlimit="10"/>
<path d="M156.605 178.882C162.074 188.354 159.354 188.772 150.543 179.815C97.5662 221.58 36.3905 223.843 13.9098 184.847C22.7116 193.814 40.3542 192.843 53.2364 182.69C70.2475 212.185 116.53 210.475 156.614 178.882H156.605Z" stroke="black" stroke-width="0.971507" stroke-miterlimit="10"/>
<path d="M63.2442 151.466C63.5162 151.903 63.9048 152.476 64.2157 152.884C64.3711 153.098 64.614 153.35 64.7986 153.535C73.6005 162.502 71.1814 179.222 59.3971 190.821C57.0557 188.441 54.9961 185.731 53.2377 182.69C64.5946 173.742 68.5098 160.588 63.2442 151.456V151.466Z" stroke="black" stroke-width="0.971507" stroke-miterlimit="10"/>
<path d="M11.2783 181.438C12.4927 182.652 13.3088 184.906 14.3386 186.285C16.3788 189.006 19.2253 192.522 21.4889 195.058C22.7713 196.486 24.6948 198.206 26.1424 199.469C27.4053 200.567 29.1735 201.936 30.5142 202.947C33.1178 204.909 36.7998 207.289 39.7532 208.679C42.6774 210.058 46.6315 211.768 49.6431 212.924C51.3238 213.575 53.636 214.216 55.375 214.673C62.6225 216.587 68.5584 217.072 71.7449 217.286C74.6303 217.49 78.4872 217.481 81.3726 217.412C83.4516 217.364 86.2204 217.111 88.2897 216.917C91.0488 216.664 94.6919 216.062 97.4219 215.567C99.6175 215.168 102.522 214.498 104.689 213.944C107.312 213.284 110.761 212.244 113.335 211.399C115.599 210.651 118.591 209.572 120.796 208.659C123.283 207.639 126.577 206.211 129.006 205.065C131.298 203.986 134.3 202.442 136.515 201.227C138.895 199.925 142.024 198.089 144.326 196.651C146.59 195.243 149.602 193.319 151.749 191.726C153.983 190.065 157.004 187.898 159.19 186.179C161.366 184.469 164.242 182.156 166.273 180.281C168.284 178.426 171.052 176.046 172.957 174.093C176.687 170.256 181.564 165.048 185.052 160.997C186.762 159.015 188.889 156.246 190.453 154.148C192.018 152.049 194.087 149.242 195.486 147.027C198.157 142.791 201.567 137.04 203.996 132.668C205.22 130.463 206.571 127.383 207.669 125.11C208.708 122.972 209.884 120.009 210.729 117.784C211.613 115.443 212.73 112.286 213.468 109.896C214.139 107.739 214.965 104.834 215.499 102.639C216.091 100.181 216.742 96.8776 217.209 94.3905C217.597 92.3018 217.966 89.4844 218.161 87.3665C218.404 84.7726 218.637 81.2946 218.666 78.691C218.734 71.2298 218.083 66.6443 217.51 62.8943C217.228 61.0581 216.762 58.6391 216.276 56.8515C215.479 53.9175 214.255 50.0607 213.245 47.1947C212.118 44.0082 210.068 39.957 208.378 37.0327L208.387 37.0813C206.668 34.1182 204.093 30.3293 201.917 27.6868C200.839 26.385 199.352 24.6752 198.177 23.4608C196.836 22.0813 195.01 20.2742 193.523 19.0501C191.027 17.0003 187.655 14.2606 184.858 12.6576C183.381 11.8027 181.457 10.5689 179.913 9.83053C176.998 8.44127 173.073 6.63428 170.023 5.58505C168.322 4.99243 166.039 4.25408 164.291 3.83633C161.328 3.12713 157.344 2.28193 154.323 1.85446C152.409 1.58244 149.844 1.3007 147.921 1.21327C145.035 1.07725 141.179 1.01896 138.293 1.08696C136.214 1.13554 133.445 1.33956 131.376 1.57272C128.627 1.89332 124.964 2.40823 122.244 2.92313C120.048 3.34088 117.134 3.98207 114.977 4.54554C112.364 5.2256 108.886 6.1971 106.331 7.09089C101.784 8.67444 95.848 11.1226 91.4374 13.0559C88.8823 14.1732 85.6278 15.9899 83.1504 17.2626C80.7314 18.4964 77.642 20.4005 75.3395 21.8384C73.0759 23.247 70.1419 25.2872 67.9172 26.7639C65.5953 28.3086 62.6614 30.5917 60.4755 32.3112C58.2993 34.0211 55.4722 36.3915 53.3931 38.2083C51.3335 40.0056 48.6716 42.4829 46.7189 44.387C44.7953 46.2621 42.2597 48.8268 40.4527 50.8281C38.6749 52.8003 36.3141 55.4525 34.6139 57.4927C32.9332 59.5037 30.7279 62.2045 29.2124 64.3418C27.6968 66.4791 25.5789 69.2479 24.18 71.463C21.5083 75.6987 18.0886 81.4403 15.6696 85.8218C14.4552 88.0271 13.027 91.0777 11.9972 93.3802C10.9383 95.7409 9.60735 98.9372 8.69414 101.366C7.87807 103.513 6.8677 106.398 6.19736 108.594C5.42015 111.11 4.44863 114.491 3.87544 117.066C3.40912 119.174 2.79704 121.972 2.45702 124.099C2.02955 126.8 1.5341 130.414 1.32037 133.134C1.16493 135.126 0.999756 137.788 0.999756 139.789C1.00947 142.694 1.03862 146.57 1.36893 149.446C1.58266 151.292 1.80611 153.759 2.15585 155.586C2.74847 158.656 3.58401 162.755 4.50694 165.738C5.02184 167.419 5.71157 169.663 6.41106 171.276C7.75174 174.375 9.69476 178.445 11.2783 181.438ZM11.2783 181.438C6.01275 172.305 9.92791 159.161 21.2848 150.213M11.2783 181.438C6.01275 172.315 9.92791 159.161 21.2848 150.213M21.2848 150.213C23.0433 153.254 25.1029 155.965 27.4442 158.345C47.7779 179.038 88.7172 174.744 124.663 146.405C164.747 114.802 183.449 65.2745 166.438 35.7795C164.679 32.7387 162.62 30.0282 160.278 27.648C139.945 6.95488 99.0054 11.2489 63.0596 39.5878C22.9753 71.1909 4.27374 120.718 21.2848 150.213Z" stroke="black" stroke-width="0.971507" stroke-miterlimit="10"/>
<path d="M53.2394 182.701C40.3669 192.853 22.7244 193.815 13.9128 184.857C-8.56786 145.871 16.1472 80.401 69.1235 38.6359C77.9254 47.6029 89.5446 62.6029 95.0045 72.0751C54.9201 103.678 36.2186 153.206 53.2297 182.701H53.2394Z" stroke="black" stroke-width="0.971507" stroke-miterlimit="10"/>
<path d="M25.1636 190.531C3.43096 152.846 27.3203 89.5526 78.5382 49.1768" stroke="black" stroke-width="0.971507" stroke-miterlimit="10"/>
<path d="M47.5959 147.931C33.7228 151.914 15.2641 147.863 6.46228 138.896" stroke="black" stroke-width="0.971507" stroke-miterlimit="10"/>
<path d="M62.5862 108.245C51.3653 105.185 35.0731 95.4018 26.2712 86.4445" stroke="black" stroke-width="0.971507" stroke-miterlimit="10"/>
<path d="M78.5265 49.1767C129.744 8.80085 188.88 6.61497 210.613 44.3095" stroke="black" stroke-width="0.971507" stroke-miterlimit="10"/>
<path d="M135.837 50.4878C137.615 37.1782 131.902 19.0596 123.091 10.1023" stroke="black" stroke-width="0.971507" stroke-miterlimit="10"/>
<path d="M172.919 49.1185C181.283 35.5659 180.914 17.253 172.112 8.28601" stroke="black" stroke-width="0.971507" stroke-miterlimit="10"/>
<path d="M198.383 68.2562C211.256 58.104 214.569 42.5501 205.767 33.5831C228.247 72.5697 203.532 138.04 150.556 179.805C159.358 188.772 162.078 188.354 156.618 178.872C196.702 147.269 215.404 97.7415 198.393 68.2465L198.383 68.2562Z" stroke="black" stroke-width="0.971507" stroke-miterlimit="10"/>
<path d="M204.018 103.027C217.892 99.0439 222.02 88.5128 213.219 79.5458" stroke="black" stroke-width="0.971507" stroke-miterlimit="10"/>
<path d="M189.027 142.714C200.248 145.774 202.21 140.965 193.399 132.008" stroke="black" stroke-width="0.971507" stroke-miterlimit="10"/>
<path d="M156.608 178.882C162.078 188.355 159.358 188.772 150.546 179.815C97.5696 221.58 36.3939 223.844 13.9132 184.847C22.7151 193.814 40.3576 192.843 53.2398 182.691C70.2509 212.186 116.533 210.476 156.618 178.882H156.608Z" stroke="black" stroke-width="0.971507" stroke-miterlimit="10"/>
<path d="M115.775 200.468C113.997 213.778 105.38 217.304 96.5778 208.347" stroke="black" stroke-width="0.971507" stroke-miterlimit="10"/>
<path d="M78.6913 201.838C70.3267 215.391 56.3661 219.121 47.5642 210.154" stroke="black" stroke-width="0.971507" stroke-miterlimit="10"/>
<path d="M9.05408 174.132C-12.6785 136.447 11.2108 73.1534 62.4287 32.7776" stroke="black" stroke-width="0.971507" stroke-miterlimit="10"/>
<path d="M6.46095 138.896C-2.3409 129.929 1.77832 119.397 15.6612 115.414" stroke="black" stroke-width="0.971507" stroke-miterlimit="10"/>
<path d="M26.2712 86.4431C17.4694 77.4761 19.4318 72.6768 30.643 75.7371" stroke="black" stroke-width="0.971507" stroke-miterlimit="10"/>
<path d="M69.1219 38.627C60.32 29.66 57.5998 30.0778 63.0597 39.5597C103.144 7.95655 149.417 6.25641 166.438 35.7514C179.31 25.5991 196.953 24.6373 205.764 33.5946C183.284 -5.39196 122.108 -3.13806 69.1316 38.627H69.1219Z" stroke="black" stroke-width="0.971507" stroke-miterlimit="10"/>
<path d="M62.4198 32.7778C113.638 -7.59806 172.773 -9.78396 194.506 27.9105" stroke="black" stroke-width="0.971507" stroke-miterlimit="10"/>
<path d="M123.098 10.0933C114.296 1.12629 105.679 4.66257 103.901 17.9722" stroke="black" stroke-width="0.971507" stroke-miterlimit="10"/>
<path d="M172.112 8.28571C163.31 -0.6813 149.34 3.04928 140.985 16.6018" stroke="black" stroke-width="0.971507" stroke-miterlimit="10"/>
<path d="M205.755 33.5936C196.953 24.6266 179.311 25.5981 166.429 35.7504C183.44 65.2453 164.738 114.773 124.654 146.376C130.123 155.848 141.733 170.858 150.535 179.815C203.511 138.05 228.226 72.5802 205.745 33.5936H205.755Z" stroke="black" stroke-width="0.971507" stroke-miterlimit="10"/>
<path d="M194.514 27.9103C216.247 65.595 192.357 128.889 141.139 169.265" stroke="black" stroke-width="0.971507" stroke-miterlimit="10"/>
<path d="M180.399 28.6875C200.169 62.972 178.436 120.534 131.853 157.266" stroke="black" stroke-width="0.971507" stroke-miterlimit="10"/>
<path d="M213.217 79.5458C204.415 70.5788 185.956 66.5276 172.083 70.5107" stroke="black" stroke-width="0.971507" stroke-miterlimit="10"/>
<path d="M193.407 132.006C184.605 123.039 168.313 113.266 157.092 110.206" stroke="black" stroke-width="0.971507" stroke-miterlimit="10"/>
<path d="M141.142 169.265C89.9245 209.64 30.7889 211.826 9.05627 174.132" stroke="black" stroke-width="0.971507" stroke-miterlimit="10"/>
<path d="M131.854 157.257C85.2705 193.989 31.4782 195.971 11.708 161.687" stroke="black" stroke-width="0.971507" stroke-miterlimit="10"/>
<path d="M96.5788 208.348C87.777 199.381 82.0548 181.262 83.8326 167.962" stroke="black" stroke-width="0.971507" stroke-miterlimit="10"/>
<path d="M47.5584 210.156C38.7565 201.189 38.3873 182.876 46.752 169.323" stroke="black" stroke-width="0.971507" stroke-miterlimit="10"/>
<path d="M60.6225 148.027C69.4243 156.994 66.1212 172.548 53.239 182.7C36.228 153.205 54.9295 103.678 95.0139 72.0745C100.483 81.5564 97.7632 81.9644 88.9517 73.0071C61.7689 94.4386 49.0907 128.024 60.6225 148.027Z" stroke="black" stroke-width="0.971507" stroke-miterlimit="10"/>
<path d="M56.7958 124.449C65.5977 133.416 61.4785 143.948 47.5957 147.931" stroke="black" stroke-width="0.971507" stroke-miterlimit="10"/>
<path d="M66.9563 97.5288C75.7581 106.496 73.7957 111.295 62.5845 108.235" stroke="black" stroke-width="0.971507" stroke-miterlimit="10"/>
<path d="M116.637 58.3577C125.439 67.3247 134.057 63.7884 135.834 50.4788" stroke="black" stroke-width="0.971507" stroke-miterlimit="10"/>
<path d="M141.789 57.4346C150.591 66.4016 164.562 62.6711 172.926 49.1185" stroke="black" stroke-width="0.971507" stroke-miterlimit="10"/>
<path d="M162.872 93.9917C171.674 102.959 190.132 107.01 204.015 103.027" stroke="black" stroke-width="0.971507" stroke-miterlimit="10"/>
<path d="M103.029 160.084C111.831 169.051 117.553 187.17 115.776 200.48" stroke="black" stroke-width="0.971507" stroke-miterlimit="10"/>
<path d="M77.8857 161.008C86.6876 169.975 87.0568 188.288 78.6921 201.84" stroke="black" stroke-width="0.971507" stroke-miterlimit="10"/>
<path d="M39.2672 189.763C19.497 155.478 41.2296 97.9164 87.8134 61.1837" stroke="black" stroke-width="0.971507" stroke-miterlimit="10"/>
<path d="M25.1603 190.531C3.42767 152.846 27.317 89.5522 78.5349 49.1764" stroke="black" stroke-width="0.971507" stroke-miterlimit="10"/>
<path d="M47.5926 147.931C33.7195 151.914 15.2608 147.863 6.45898 138.896" stroke="black" stroke-width="0.971507" stroke-miterlimit="10"/>
<path d="M87.8241 61.1852C134.408 24.4525 188.2 22.4706 207.97 56.7551" stroke="black" stroke-width="0.971507" stroke-miterlimit="10"/>
<path d="M78.5261 49.1769C129.744 8.80109 188.88 6.61521 210.612 44.3097" stroke="black" stroke-width="0.971507" stroke-miterlimit="10"/>
<path d="M135.836 50.4881C137.614 37.1784 131.902 19.0598 123.09 10.1025" stroke="black" stroke-width="0.971507" stroke-miterlimit="10"/>
<path d="M172.918 49.1187C181.283 35.5662 180.914 17.2533 172.112 8.28625" stroke="black" stroke-width="0.971507" stroke-miterlimit="10"/>
<path d="M204.017 103.027C217.89 99.0442 222.019 88.513 213.217 79.546" stroke="black" stroke-width="0.971507" stroke-miterlimit="10"/>
<path d="M189.026 142.714C200.247 145.774 202.209 140.965 193.397 132.008" stroke="black" stroke-width="0.971507" stroke-miterlimit="10"/>
<path d="M115.774 200.469C113.997 213.779 105.379 217.305 96.5774 208.348" stroke="black" stroke-width="0.971507" stroke-miterlimit="10"/>
<path d="M6.46022 138.896C-2.34163 129.929 1.77759 119.397 15.6604 115.414" stroke="black" stroke-width="0.971507" stroke-miterlimit="10"/>
<path d="M26.2705 86.4431C17.4686 77.4761 19.4311 72.6768 30.6423 75.7371" stroke="black" stroke-width="0.971507" stroke-miterlimit="10"/>
<path d="M69.1215 38.6273C60.3197 29.6603 57.5995 30.078 63.0593 39.5599C103.144 7.95679 149.417 6.25666 166.437 35.7516C179.31 25.5994 196.952 24.6376 205.764 33.5949C183.283 -5.39172 122.108 -3.13781 69.1313 38.6273H69.1215Z" stroke="black" stroke-width="0.971507" stroke-miterlimit="10"/>
<path d="M62.4194 32.778C113.637 -7.59782 172.773 -9.78372 194.506 27.9108" stroke="black" stroke-width="0.971507" stroke-miterlimit="10"/>
<path d="M123.098 10.0935C114.296 1.12653 105.679 4.66282 103.901 17.9725" stroke="black" stroke-width="0.971507" stroke-miterlimit="10"/>
<path d="M172.112 8.28595C163.31 -0.681056 149.34 3.04953 140.985 16.6021" stroke="black" stroke-width="0.971507" stroke-miterlimit="10"/>
<path d="M194.516 27.9108C216.249 65.5955 192.359 128.889 141.142 169.265" stroke="black" stroke-width="0.971507" stroke-miterlimit="10"/>
<path d="M213.22 79.5463C204.418 70.5792 185.959 66.5281 172.086 70.5112" stroke="black" stroke-width="0.971507" stroke-miterlimit="10"/>
<path d="M193.409 132.007C184.608 123.04 168.315 113.266 157.094 110.206" stroke="black" stroke-width="0.971507" stroke-miterlimit="10"/>
<path d="M141.142 169.265C89.9241 209.64 30.7885 211.826 9.05591 174.132" stroke="black" stroke-width="0.971507" stroke-miterlimit="10"/>
<path d="M96.5778 208.348C87.776 199.381 82.0538 181.262 83.8317 167.962" stroke="black" stroke-width="0.971507" stroke-miterlimit="10"/>
<path d="M47.558 210.156C38.7562 201.189 38.387 182.876 46.7517 169.323" stroke="black" stroke-width="0.971507" stroke-miterlimit="10"/>
<path d="M116.667 58.1042C107.952 49.2343 102.298 31.3003 104.056 18.1364" stroke="black" stroke-width="0.971507" stroke-miterlimit="10"/>
<path d="M170.431 75.8433C182.769 97.2261 169.207 133.143 140.14 156.061" stroke="black" stroke-width="0.971507" stroke-miterlimit="10"/>
</svg>
