<svg width="203" height="40" viewBox="0 0 203 40" fill="none" xmlns="http://www.w3.org/2000/svg">
<path d="M5.06663 37.7149C2.49462 36.4096 2.04946 35.1043 2.29677 29.5818C2.39569 26.9713 2.54408 24.7623 2.54408 24.7623C2.59354 24.7121 3.18708 24.2603 3.87955 23.8084L5.21502 22.955L4.91825 25.0133C4.76986 26.1178 4.86879 27.0717 5.11609 27.0717C5.3634 27.0717 5.56125 27.4231 5.56125 27.8247C5.56125 28.2263 5.16556 28.5778 4.7204 28.5778C4.17632 28.5778 4.02793 28.7284 4.37417 28.9794C4.67094 29.1802 5.06663 30.4353 5.16556 31.7908C5.31394 33.0961 5.80856 34.552 6.20425 34.9536C8.0838 36.9116 11.4967 35.0039 13.2773 31.0378C13.8214 29.7325 14.4149 29.0798 14.9095 29.2304C16.7891 29.5818 14.0687 35.4055 11.0515 37.4638C9.02358 38.8695 7.39134 38.9197 5.06663 37.7149ZM28.561 35.1545C20.9439 33.2467 17.7289 24.6117 21.9826 17.6334C24.4062 13.6673 31.9739 12.1611 37.2663 14.6211C40.8275 16.2779 42.5587 18.8382 42.9544 22.955L43.2512 26.0676H24.8514V27.2725C24.8514 28.0255 25.4944 29.0296 26.5331 29.9835C28.6105 31.841 32.9136 32.4937 37.4147 31.6402C38.9974 31.339 40.4813 31.2386 40.7286 31.3892C40.9759 31.5398 41.1738 32.2928 41.1738 33.0961C41.1738 34.4516 41.0254 34.5018 38.0577 35.0541C34.5953 35.6565 30.8362 35.7067 28.561 35.1545ZM38.2555 20.8966C37.0684 18.0852 34.991 16.8803 31.4792 16.9305C27.7201 16.9807 25.0987 18.8884 24.7524 21.9509C24.604 23.0052 24.7524 23.0554 31.0341 23.3064C34.5459 23.457 37.5136 23.708 37.662 23.8084C37.7609 23.959 38.1566 23.8084 38.5028 23.5072C38.9974 23.1056 38.948 22.5533 38.2555 20.8966ZM53.4897 35.1545C49.978 34.05 48.593 32.092 48.593 28.1761C48.593 26.2182 48.8403 25.5153 49.8296 24.5615C50.4726 23.959 50.9177 23.2562 50.8188 23.0554C50.7199 22.8545 51.4618 22.4027 52.55 22.0513C55.2704 21.1476 62.294 21.6497 63.1348 22.8043C63.6789 23.5574 63.7778 23.5574 64.3713 22.8545C65.1627 21.9007 64.4208 19.6415 62.8875 18.2358C61.2058 16.6795 55.2209 16.4285 51.9564 17.784C51.2145 18.0852 51.0661 17.8342 51.0661 16.3281C51.0661 14.6713 51.2145 14.5207 53.0941 14.0187C56.2101 13.1652 59.9692 13.115 62.6402 13.9183C68.3778 15.575 69.0208 16.8301 69.2681 27.2223L69.4659 35.1043H67.8337C65.9047 35.1043 65.2122 34.7026 64.767 33.3973C64.4208 32.5439 64.3219 32.5439 63.5305 33.2467C61.3047 35.3051 56.7542 36.1585 53.4897 35.1545ZM62.294 31.088C64.1735 29.9333 65.0638 28.377 64.6681 27.1219C64.2724 25.8166 60.9585 24.5615 58.0402 24.5615C54.8252 24.5615 53.3414 25.7664 53.3414 28.3268C53.3414 29.6823 53.6381 30.4855 54.479 31.1382C56.0618 32.4435 60.1671 32.4435 62.294 31.088ZM126.743 34.6022C121.45 32.7949 118.928 27.9753 119.966 21.8003C120.857 16.5791 124.665 13.4664 130.403 13.366C137.872 13.2656 142.57 17.2819 142.57 23.8084V26.0676H133.42C124.418 26.0676 124.27 26.0676 124.27 27.1219C124.27 27.7243 125.061 28.9292 126.001 29.8831C127.435 31.2386 128.227 31.5398 130.799 31.841C132.53 32.0418 135.052 31.9916 136.388 31.7406C139.801 31.1382 140.592 31.3892 140.592 33.0961C140.592 34.4516 140.444 34.5018 137.476 35.0541C133.024 35.8573 129.859 35.7067 126.743 34.6022ZM137.971 22.7541C138.416 21.499 136.833 18.6374 135.102 17.7338C130.799 15.4746 124.27 17.9848 124.27 21.9007C124.27 23.206 125.061 23.3566 132.579 23.457C136.833 23.5574 137.723 23.4068 137.971 22.7541ZM74.3132 25.3647C74.3132 19.9929 74.4616 15.2738 74.6099 14.8219C74.8078 14.3199 75.5003 14.0187 76.539 14.0187C78.2207 14.0187 79.5561 15.1232 79.012 16.0268C78.3196 17.1313 79.3583 17.5832 80.4464 16.6293C81.9798 15.2738 84.3539 14.4203 86.2335 14.6211C87.6679 14.7215 87.9646 14.9726 88.0636 16.1774C88.2119 17.2819 88.0636 17.5329 87.0743 17.5329C85.0464 17.5329 82.2765 18.537 80.7432 19.8423L79.2594 21.1476V35.1043H74.3132V25.3647ZM93.7022 24.7121L93.8506 14.2697L95.2355 14.1191C96.8678 13.9183 98.0548 14.7717 98.0548 16.077C98.0548 17.2819 98.5989 17.2819 100.083 16.077C104.238 12.864 109.382 12.4624 112.547 15.2236C114.674 17.1313 114.872 18.035 114.872 26.7704V35.1043H110.42L110.371 28.2263C110.321 24.4109 110.173 20.746 109.975 20.0933C109.134 16.9807 104.633 15.9264 101.22 18.035C98.5495 19.7419 98.3022 20.5452 98.4505 28.2263L98.5989 35.1043H93.6033L93.7022 24.7121ZM148.011 24.5113V13.9685L149.792 14.1191C151.573 14.2697 152.018 14.6713 152.71 16.7799C152.957 17.4325 153.155 17.5329 153.304 17.1313C153.452 16.8301 153.798 16.6795 154.046 16.8301C154.392 17.0309 154.441 16.9305 154.243 16.5791C153.798 15.8762 156.766 14.5207 158.843 14.5207C161.02 14.5207 161.861 15.0228 161.861 16.2779C161.861 17.2317 161.514 17.4325 159.635 17.6836C158.398 17.8844 156.766 18.3362 155.975 18.788C153.007 20.2942 152.957 20.5452 152.957 28.1259V35.1043H148.011V24.5113ZM169.379 34.7528C168.785 34.6524 168.39 34.301 168.587 34.05C168.736 33.799 169.131 33.7488 169.428 33.8994C169.873 34.1504 169.873 34.1002 169.428 33.5981C168.983 33.0961 169.23 32.5941 170.566 31.1382C171.506 30.1341 172.396 28.879 172.544 28.377C172.742 27.8247 173.336 26.9713 173.929 26.4692C174.473 26.0174 174.77 25.6158 174.572 25.5655C174.127 25.5655 174.968 24.4611 176.551 22.955C177.144 22.3525 177.54 21.6999 177.392 21.4488C177.243 21.248 177.342 21.0472 177.639 21.0472C177.886 21.0472 178.282 20.5954 178.43 20.0431C178.678 19.2901 177.589 17.4325 174.078 12.613C171.506 9.09872 169.181 5.68486 168.835 5.08242C168.291 4.02814 168.34 3.97794 170.863 3.97794H173.484L176.699 8.59668C178.48 11.1069 180.211 13.7175 180.557 14.3701C181.299 15.7758 182.041 15.8762 182.536 14.6211C182.733 14.1191 184.465 11.5587 186.344 8.8477L189.807 4.02814L192.082 3.97794C193.318 3.97794 194.456 4.12855 194.604 4.27916C194.802 4.42977 192.576 7.79342 189.757 11.8097C186.938 15.7758 184.613 19.3905 184.613 19.8423C184.613 20.2942 185.207 21.248 185.998 22.0011C186.74 22.7541 187.68 23.8586 188.075 24.5113C188.471 25.1639 189.065 25.9672 189.312 26.2684C190.796 27.9251 195 34.05 195 34.552C195 34.9034 194.06 35.1043 192.576 35.1043C190.4 35.1043 190.054 34.9536 189.114 33.4977C188.57 32.5941 186.789 30.0337 185.108 27.8749C183.475 25.7162 182.14 23.708 182.14 23.5072C182.14 22.6035 181.349 23.1056 180.557 24.4611C180.112 25.2141 179.321 26.3186 178.826 26.921C178.331 27.5737 176.848 29.6321 175.463 31.5398C172.891 35.1545 172.544 35.3553 169.379 34.7528ZM2.44516 22.2019C2.24731 22.0513 2.09892 19.7921 2.09892 17.2819C2.09892 13.4664 2.24731 12.5126 2.98924 11.8599C3.48385 11.3579 4.0774 11.1571 4.32471 11.3579C4.52255 11.6089 4.57201 11.4583 4.32471 11.0567C4.0774 10.6048 4.12686 10.4542 4.47309 10.7052C5.41287 11.3077 5.21502 18.1856 4.22578 20.5452C3.33547 22.5533 3.0387 22.8545 2.44516 22.2019ZM2.19785 10.7052C2.29677 9.55055 2.643 9.19913 3.73116 9.09872C5.46233 8.8979 5.41287 9.45014 3.53332 10.9563L2 12.1611L2.19785 10.7052Z" fill="#171717"/>
<path d="M2.94003 28.2264C2.19811 27.5236 2.69272 26.0677 4.42389 23.5073C6.60021 20.244 8.0346 14.8722 8.0346 9.65105C8.0346 5.68495 7.44106 3.47599 6.3529 3.47599C5.46258 3.47599 5.06689 4.58047 5.01743 7.39188C5.01743 9.40003 4.77012 9.95227 3.53357 10.9061L2.09918 12.111V8.64697C2.09918 3.07436 4.22604 0.262948 7.68837 1.16662C9.66684 1.66865 10.5077 3.82741 10.5077 8.44616C10.5077 13.2155 9.22168 19.24 6.9959 24.7122C5.70989 27.875 5.26474 28.5779 4.32496 28.5779C3.73142 28.5779 3.08842 28.4272 2.94003 28.2264Z" fill="#EC5B25"/>
</svg>
